{
  "accessors": [
    {
      "bufferView": 2,
      "componentType": 5126,
      "count": 330,
      "max": [
        0.6018409729003906,
        10.966730117797852,
        0.6808332204818726
      ],
      "min": [
        -0.6018409729003906,
        -0.02967107482254505,
        -5.282867908477783
      ],
      "type": "VEC3"
    },
    {
      "bufferView": 2,
      "byteOffset": 3960,
      "componentType": 5126,
      "count": 330,
      "max": [
        0.9999130368232727,
        0.8405281901359558,
        0.8667690753936768
      ],
      "min": [
        -0.9999129176139832,
        -0.7063304781913757,
        -0.8850082159042358
      ],
      "type": "VEC3"
    },
    {
      "bufferView": 1,
      "componentType": 5126,
      "count": 330,
      "max": [
        0.625,
        0.6884398460388184
      ],
      "min": [
        0.375,
        0.3125
      ],
      "type": "VEC2"
    },
    {
      "bufferView": 0,
      "componentType": 5125,
      "count": 660,
      "type": "SCALAR"
    },
    {
      "bufferView": 2,
      "byteOffset": 7920,
      "componentType": 5126,
      "count": 154,
      "max": [
        0.48438823223114014,
        0.7886558175086975,
        1.286617636680603
      ],
      "min": [
        -0.48452264070510864,
        0.13963498175144196,
        -0.8347224593162537
      ],
      "type": "VEC3"
    },
    {
      "bufferView": 2,
      "byteOffset": 9768,
      "componentType": 5126,
      "count": 154,
      "max": [
        0.9999133348464966,
        0.9999344348907471,
        0.9578043818473816
      ],
      "min": [
        -0.9999101758003235,
        -0.9999377727508545,
        -0.8770665526390076
      ],
      "type": "VEC3"
    },
    {
      "bufferView": 1,
      "byteOffset": 2640,
      "componentType": 5126,
      "count": 154,
      "max": [
        1.0,
        1.0
      ],
      "min": [
        0.0,
        0.0
      ],
      "type": "VEC2"
    },
    {
      "bufferView": 0,
      "byteOffset": 2640,
      "componentType": 5125,
      "count": 318,
      "type": "SCALAR"
    },
    {
      "bufferView": 2,
      "byteOffset": 11616,
      "componentType": 5126,
      "count": 158,
      "max": [
        0.4847501516342163,
        0.7885822057723999,
        1.2866215705871582
      ],
      "min": [
        -0.48438823223114014,
        0.13964039087295532,
        -0.8347224593162537
      ],
      "type": "VEC3"
    },
    {
      "bufferView": 2,
      "byteOffset": 13512,
      "componentType": 5126,
      "count": 158,
      "max": [
        0.9999091029167175,
        0.9998521208763123,
        0.9976351857185364
      ],
      "min": [
        -0.9999102354049683,
        -0.9998543858528137,
        -0.9891300797462463
      ],
      "type": "VEC3"
    },
    {
      "bufferView": 1,
      "byteOffset": 3872,
      "componentType": 5126,
      "count": 158,
      "max": [
        1.0,
        1.0
      ],
      "min": [
        0.0,
        0.0
      ],
      "type": "VEC2"
    },
    {
      "bufferView": 0,
      "byteOffset": 3912,
      "componentType": 5125,
      "count": 348,
      "type": "SCALAR"
    },
    {
      "bufferView": 2,
      "byteOffset": 15408,
      "componentType": 5126,
      "count": 154,
      "max": [
        0.48438823223114014,
        0.7886558175086975,
        1.286617636680603
      ],
      "min": [
        -0.48452264070510864,
        0.13963498175144196,
        -0.8347224593162537
      ],
      "type": "VEC3"
    },
    {
      "bufferView": 2,
      "byteOffset": 17256,
      "componentType": 5126,
      "count": 154,
      "max": [
        0.9999133348464966,
        0.9999344348907471,
        0.9578043818473816
      ],
      "min": [
        -0.9999101758003235,
        -0.9999377727508545,
        -0.8770665526390076
      ],
      "type": "VEC3"
    },
    {
      "bufferView": 1,
      "byteOffset": 5136,
      "componentType": 5126,
      "count": 154,
      "max": [
        1.0,
        1.0
      ],
      "min": [
        0.0,
        0.0
      ],
      "type": "VEC2"
    },
    {
      "bufferView": 0,
      "byteOffset": 5304,
      "componentType": 5125,
      "count": 318,
      "type": "SCALAR"
    },
    {
      "bufferView": 2,
      "byteOffset": 19104,
      "componentType": 5126,
      "count": 154,
      "max": [
        0.48438823223114014,
        0.7886558175086975,
        1.286617636680603
      ],
      "min": [
        -0.48452264070510864,
        0.13963498175144196,
        -0.8347224593162537
      ],
      "type": "VEC3"
    },
    {
      "bufferView": 2,
      "byteOffset": 20952,
      "componentType": 5126,
      "count": 154,
      "max": [
        0.9999133348464966,
        0.9999344348907471,
        0.9578043818473816
      ],
      "min": [
        -0.9999101758003235,
        -0.9999377727508545,
        -0.8770665526390076
      ],
      "type": "VEC3"
    },
    {
      "bufferView": 1,
      "byteOffset": 6368,
      "componentType": 5126,
      "count": 154,
      "max": [
        1.0,
        1.0
      ],
      "min": [
        0.0,
        0.0
      ],
      "type": "VEC2"
    },
    {
      "bufferView": 0,
      "byteOffset": 6576,
      "componentType": 5125,
      "count": 318,
      "type": "SCALAR"
    },
    {
      "bufferView": 2,
      "byteOffset": 22800,
      "componentType": 5126,
      "count": 279,
      "max": [
        0.9999995827674866,
        0.9999980926513672,
        0.9999997615814209
      ],
      "min": [
        -0.9999995827674866,
        -4.254756927490234,
        -1.8122947216033936
      ],
      "type": "VEC3"
    },
    {
      "bufferView": 2,
      "byteOffset": 26148,
      "componentType": 5126,
      "count": 279,
      "max": [
        1.0,
        1.0,
        0.9999999403953552
      ],
      "min": [
        -1.0,
        -1.0,
        -1.0
      ],
      "type": "VEC3"
    },
    {
      "bufferView": 1,
      "byteOffset": 7600,
      "componentType": 5126,
      "count": 279,
      "max": [
        0.65625,
        0.84375
      ],
      "min": [
        0.34375,
        0.15000000596046448
      ],
      "type": "VEC2"
    },
    {
      "bufferView": 0,
      "byteOffset": 7848,
      "componentType": 5125,
      "count": 573,
      "type": "SCALAR"
    },
    {
      "bufferView": 2,
      "byteOffset": 29496,
      "componentType": 5126,
      "count": 158,
      "max": [
        0.4847501516342163,
        0.7885822057723999,
        1.2866215705871582
      ],
      "min": [
        -0.48438823223114014,
        0.13964039087295532,
        -0.8347224593162537
      ],
      "type": "VEC3"
    },
    {
      "bufferView": 2,
      "byteOffset": 31392,
      "componentType": 5126,
      "count": 158,
      "max": [
        0.9999091029167175,
        0.9998521208763123,
        0.9976351857185364
      ],
      "min": [
        -0.9999102354049683,
        -0.9998543858528137,
        -0.9891300797462463
      ],
      "type": "VEC3"
    },
    {
      "bufferView": 1,
      "byteOffset": 9832,
      "componentType": 5126,
      "count": 158,
      "max": [
        1.0,
        1.0
      ],
      "min": [
        0.0,
        0.0
      ],
      "type": "VEC2"
    },
    {
      "bufferView": 0,
      "byteOffset": 10140,
      "componentType": 5125,
      "count": 348,
      "type": "SCALAR"
    },
    {
      "bufferView": 2,
      "byteOffset": 33288,
      "componentType": 5126,
      "count": 158,
      "max": [
        0.4847501516342163,
        0.7885822057723999,
        1.2866215705871582
      ],
      "min": [
        -0.48438823223114014,
        0.13964039087295532,
        -0.8347224593162537
      ],
      "type": "VEC3"
    },
    {
      "bufferView": 2,
      "byteOffset": 35184,
      "componentType": 5126,
      "count": 158,
      "max": [
        0.9999091029167175,
        0.9998521208763123,
        0.9976351857185364
      ],
      "min": [
        -0.9999102354049683,
        -0.9998543858528137,
        -0.9891300797462463
      ],
      "type": "VEC3"
    },
    {
      "bufferView": 1,
      "byteOffset": 11096,
      "componentType": 5126,
      "count": 158,
      "max": [
        1.0,
        1.0
      ],
      "min": [
        0.0,
        0.0
      ],
      "type": "VEC2"
    },
    {
      "bufferView": 0,
      "byteOffset": 11532,
      "componentType": 5125,
      "count": 348,
      "type": "SCALAR"
    }
  ],
  "asset": {
    "extras": {
      "author": "Connor_Appleton (https://sketchfab.com/connorsmithappleton)",
      "license": "CC-BY-4.0 (http://creativecommons.org/licenses/by/4.0/)",
      "source": "https://sketchfab.com/3d-models/palm-tree-low-poly-6198f5dd302644a2bc5e1d31fef46fb0",
      "title": "Palm Tree Low Poly"
    },
    "generator": "Sketchfab-15.97.0",
    "version": "2.0"
  },
  "bufferViews": [
    {
      "buffer": 0,
      "byteLength": 12924,
      "name": "floatBufferViews",
      "target": 34963
    },
    {
      "buffer": 0,
      "byteLength": 12360,
      "byteOffset": 12924,
      "byteStride": 8,
      "name": "floatBufferViews",
      "target": 34962
    },
    {
      "buffer": 0,
      "byteLength": 37080,
      "byteOffset": 25284,
      "byteStride": 12,
      "name": "floatBufferViews",
      "target": 34962
    }
  ],
  "buffers": [
    {
      "byteLength": 62364,
      "uri": "scene.bin"
    }
  ],
  "materials": [
    {
      "doubleSided": true,
      "name": "lambert3",
      "pbrMetallicRoughness": {
        "baseColorFactor": [
          0.378,
          0.234801,
          0.140994,
          1.0
        ],
        "metallicFactor": 0.0,
        "roughnessFactor": 0.6
      }
    },
    {
      "doubleSided": true,
      "name": "lambert2",
      "pbrMetallicRoughness": {
        "baseColorFactor": [
          0.092455,
          0.451,
          0.092455,
          1.0
        ],
        "metallicFactor": 0.0,
        "roughnessFactor": 0.6
      }
    },
    {
      "doubleSided": true,
      "name": "lambert1",
      "pbrMetallicRoughness": {
        "baseColorFactor": [
          0.5,
          0.5,
          0.5,
          1.0
        ],
        "metallicFactor": 0.0,
        "roughnessFactor": 0.6
      }
    }
  ],
  "meshes": [
    {
      "name": "pCylinder10_lambert3_0",
      "primitives": [
        {
          "attributes": {
            "NORMAL": 1,
            "POSITION": 0,
            "TEXCOORD_0": 2
          },
          "indices": 3,
          "material": 0,
          "mode": 4
        }
      ]
    },
    {
      "name": "pPlane1_lambert2_0",
      "primitives": [
        {
          "attributes": {
            "NORMAL": 5,
            "POSITION": 4,
            "TEXCOORD_0": 6
          },
          "indices": 7,
          "material": 1,
          "mode": 4
        }
      ]
    },
    {
      "name": "pPlane2_lambert2_0",
      "primitives": [
        {
          "attributes": {
            "NORMAL": 9,
            "POSITION": 8,
            "TEXCOORD_0": 10
          },
          "indices": 11,
          "material": 1,
          "mode": 4
        }
      ]
    },
    {
      "name": "pPlane3_lambert2_0",
      "primitives": [
        {
          "attributes": {
            "NORMAL": 13,
            "POSITION": 12,
            "TEXCOORD_0": 14
          },
          "indices": 15,
          "material": 1,
          "mode": 4
        }
      ]
    },
    {
      "name": "pPlane4_lambert2_0",
      "primitives": [
        {
          "attributes": {
            "NORMAL": 17,
            "POSITION": 16,
            "TEXCOORD_0": 18
          },
          "indices": 19,
          "material": 1,
          "mode": 4
        }
      ]
    },
    {
      "name": "pasted__pCylinder4_lambert1_0",
      "primitives": [
        {
          "attributes": {
            "NORMAL": 21,
            "POSITION": 20,
            "TEXCOORD_0": 22
          },
          "indices": 23,
          "material": 2,
          "mode": 4
        }
      ]
    },
    {
      "name": "pPlane5_lambert2_0",
      "primitives": [
        {
          "attributes": {
            "NORMAL": 25,
            "POSITION": 24,
            "TEXCOORD_0": 26
          },
          "indices": 27,
          "material": 1,
          "mode": 4
        }
      ]
    },
    {
      "name": "pPlane6_lambert2_0",
      "primitives": [
        {
          "attributes": {
            "NORMAL": 29,
            "POSITION": 28,
            "TEXCOORD_0": 30
          },
          "indices": 31,
          "material": 1,
          "mode": 4
        }
      ]
    }
  ],
  "nodes": [
    {
      "children": [
        1
      ],
      "matrix": [
        1.0,
        0.0,
        0.0,
        0.0,
        0.0,
        2.220446049250313e-16,
        -1.0,
        0.0,
        0.0,
        1.0,
        2.220446049250313e-16,
        0.0,
        0.0,
        0.0,
        0.0,
        1.0
      ],
      "name": "Sketchfab_model"
    },
    {
      "children": [
        2
      ],
      "matrix": [
        0.009999999776482582,
        0.0,
        0.0,
        0.0,
        0.0,
        0.0,
        0.009999999776482582,
        0.0,
        0.0,
        -0.009999999776482582,
        0.0,
        0.0,
        0.0,
        0.0,
        0.0,
        1.0
      ],
      "name": "34d5b14ae5b44b769031b46d2a27b885.fbx"
    },
    {
      "children": [
        3,
        5,
        7,
        9,
        11,
        13,
        16,
        18
      ],
      "name": "RootNode"
    },
    {
      "children": [
        4
      ],
      "matrix": [
        1.0,
        0.0,
        0.0,
        0.0,
        0.0,
        0.9993740317012206,
        0.035377178537124764,
        0.0,
        0.0,
        -0.035377178537124764,
        0.9993740317012206,
        0.0,
        0.0,
        0.003822773229330778,
        -0.21604757010936737,
        1.0
      ],
      "name": "pCylinder10"
    },
    {
      "mesh": 0,
      "name": "pCylinder10_lambert3_0"
    },
    {
      "children": [
        6
      ],
      "matrix": [
        -1.6290348388402918,
        1.994992301085288e-16,
        1.1602781967461877,
        0.0,
        5.794955193104205e-16,
        2.9946351051330566,
        2.98713698965009e-16,
        0.0,
        -1.1602781967461877,
        3.870224578060388e-16,
        -1.6290348388402918,
        0.0,
        -0.7170631885528564,
        9.038344383239746,
        -6.00831413269043,
        1.0
      ],
      "name": "pPlane1"
    },
    {
      "mesh": 1,
      "name": "pPlane1_lambert2_0"
    },
    {
      "children": [
        8
      ],
      "matrix": [
        -1.6290401156778076,
        -0.002088258202577851,
        -1.1602689087836997,
        0.0,
        -0.0010083293979120391,
        2.9946322984907194,
        -0.003974041178820758,
        0.0,
        1.160270592582917,
        -0.001771147089791745,
        -1.6290392920446317,
        0.0,
        0.7172194719314575,
        9.038581848144531,
        -6.002743244171143,
        1.0
      ],
      "name": "pPlane2"
    },
    {
      "mesh": 2,
      "name": "pPlane2_lambert2_0"
    },
    {
      "children": [
        10
      ],
      "matrix": [
        0.06979899340500206,
        0.0,
        1.9987816540381915,
        0.0,
        0.0,
        2.9946351051330566,
        0.0,
        0.0,
        -1.9987816540381915,
        0.0,
        0.06979899340500206,
        0.0,
        -1.5345252752304077,
        9.038344383239746,
        -4.912917137145996,
        1.0
      ],
      "name": "pPlane3"
    },
    {
      "mesh": 3,
      "name": "pPlane3_lambert2_0"
    },
    {
      "children": [
        12
      ],
      "matrix": [
        0.06979899340500206,
        0.0,
        -1.9987816540381915,
        0.0,
        0.0,
        2.9946351051330566,
        0.0,
        0.0,
        1.9987816540381915,
        0.0,
        0.06979899340500206,
        0.0,
        1.5383847951889038,
        9.038344383239746,
        -4.913186073303223,
        1.0
      ],
      "name": "pPlane4"
    },
    {
      "mesh": 4,
      "name": "pPlane4_lambert2_0"
    },
    {
      "children": [
        14
      ],
      "name": "group"
    },
    {
      "children": [
        15
      ],
      "matrix": [
        0.08510519564151764,
        0.0,
        0.0,
        0.0,
        0.0,
        0.0010876735687801319,
        -0.012241494938320913,
        0.0,
        0.0,
        0.08477123741412164,
        0.007532040391528559,
        0.0,
        0.0,
        0.08099394291639328,
        -0.33685144782066345,
        1.0
      ],
      "name": "pasted__pCylinder4"
    },
    {
      "mesh": 5,
      "name": "pasted__pCylinder4_lambert1_0"
    },
    {
      "children": [
        17
      ],
      "matrix": [
        1.7891939551286637,
        0.0,
        -0.893747722196286,
        0.0,
        0.0,
        2.9946351051330566,
        0.0,
        0.0,
        0.893747722196286,
        0.0,
        1.7891939551286637,
        0.0,
        0.7777343392372131,
        9.038180351257324,
        -3.4852561950683594,
        1.0
      ],
      "name": "pPlane5"
    },
    {
      "mesh": 6,
      "name": "pPlane5_lambert2_0"
    },
    {
      "children": [
        19
      ],
      "matrix": [
        1.7859539380845204,
        0.0,
        0.9002047161842652,
        0.0,
        0.0,
        2.9946351051330566,
        0.0,
        0.0,
        -0.9002047161842652,
        0.0,
        1.7859539380845204,
        0.0,
        -0.776922345161438,
        9.038180351257324,
        -3.484848737716675,
        1.0
      ],
      "name": "pPlane6"
    },
    {
      "mesh": 7,
      "name": "pPlane6_lambert2_0"
    }
  ],
  "scene": 0,
  "scenes": [
    {
      "name": "Sketchfab_Scene",
      "nodes": [
        0
      ]
    }
  ]
}
