{
	"asset":{
		"generator":"Khronos glTF Blender I/O v4.1.62",
		"version":"2.0"
	},
	"scene":0,
	"scenes":[
		{
			"name":"Scene",
			"nodes":[
				156,
				159,
				166,
				171
			]
		}
	],
	"nodes":[
		{
			"name":"pCube21.035"
		},
		{
			"name":"pCube22.035"
		},
		{
			"children":[
				0,
				1
			],
			"name":"group6.017"
		},
		{
			"name":"pCube21.034"
		},
		{
			"name":"pCube22.034"
		},
		{
			"children":[
				3,
				4
			],
			"name":"group7.017"
		},
		{
			"children":[
				2,
				5
			],
			"name":"group10.005"
		},
		{
			"name":"pCube21.031"
		},
		{
			"name":"pCube22.031"
		},
		{
			"children":[
				7,
				8
			],
			"name":"group6.015"
		},
		{
			"name":"pCube21.030"
		},
		{
			"name":"pCube22.030"
		},
		{
			"children":[
				10,
				11
			],
			"name":"group7.015"
		},
		{
			"children":[
				9,
				12
			],
			"name":"group8.005"
		},
		{
			"name":"pCube21.033"
		},
		{
			"name":"pCube22.033"
		},
		{
			"children":[
				14,
				15
			],
			"name":"group6.016"
		},
		{
			"name":"pCube21.032"
		},
		{
			"name":"pCube22.032"
		},
		{
			"children":[
				17,
				18
			],
			"name":"group7.016"
		},
		{
			"children":[
				16,
				19
			],
			"name":"group9.005"
		},
		{
			"name":"yellow_gem"
		},
		{
			"children":[
				6,
				13,
				20,
				21
			],
			"name":"group13"
		},
		{
			"name":"pCube21.029"
		},
		{
			"name":"pCube22.029"
		},
		{
			"children":[
				23,
				24
			],
			"name":"group6.014"
		},
		{
			"name":"pCube21.028"
		},
		{
			"name":"pCube22.028"
		},
		{
			"children":[
				26,
				27
			],
			"name":"group7.014"
		},
		{
			"children":[
				25,
				28
			],
			"name":"group10.004"
		},
		{
			"name":"pCube21.025"
		},
		{
			"name":"pCube22.025"
		},
		{
			"children":[
				30,
				31
			],
			"name":"group6.012"
		},
		{
			"name":"pCube21.024"
		},
		{
			"name":"pCube22.024"
		},
		{
			"children":[
				33,
				34
			],
			"name":"group7.012"
		},
		{
			"children":[
				32,
				35
			],
			"name":"group8.004"
		},
		{
			"name":"pCube21.027"
		},
		{
			"name":"pCube22.027"
		},
		{
			"children":[
				37,
				38
			],
			"name":"group6.013"
		},
		{
			"name":"pCube21.026"
		},
		{
			"name":"pCube22.026"
		},
		{
			"children":[
				40,
				41
			],
			"name":"group7.013"
		},
		{
			"children":[
				39,
				42
			],
			"name":"group9.004"
		},
		{
			"name":"yellow_gem2"
		},
		{
			"children":[
				29,
				36,
				43,
				44
			],
			"name":"group15"
		},
		{
			"name":"pCube21.023"
		},
		{
			"name":"pCube22.023"
		},
		{
			"children":[
				46,
				47
			],
			"name":"group6.011"
		},
		{
			"name":"pCube21.022"
		},
		{
			"name":"pCube22.022"
		},
		{
			"children":[
				49,
				50
			],
			"name":"group7.011"
		},
		{
			"children":[
				48,
				51
			],
			"name":"group10.003"
		},
		{
			"name":"pCube21.019"
		},
		{
			"name":"pCube22.019"
		},
		{
			"children":[
				53,
				54
			],
			"name":"group6.009"
		},
		{
			"name":"pCube21.018"
		},
		{
			"name":"pCube22.018"
		},
		{
			"children":[
				56,
				57
			],
			"name":"group7.009"
		},
		{
			"children":[
				55,
				58
			],
			"name":"group8.003"
		},
		{
			"name":"pCube21.021"
		},
		{
			"name":"pCube22.021"
		},
		{
			"children":[
				60,
				61
			],
			"name":"group6.010"
		},
		{
			"name":"pCube21.020"
		},
		{
			"name":"pCube22.020"
		},
		{
			"children":[
				63,
				64
			],
			"name":"group7.010"
		},
		{
			"children":[
				62,
				65
			],
			"name":"group9.003"
		},
		{
			"name":"yellow_gem3"
		},
		{
			"children":[
				52,
				59,
				66,
				67
			],
			"name":"group16"
		},
		{
			"name":"pCube21.017"
		},
		{
			"name":"pCube22.017"
		},
		{
			"children":[
				69,
				70
			],
			"name":"group6.008"
		},
		{
			"name":"pCube21.016"
		},
		{
			"name":"pCube22.016"
		},
		{
			"children":[
				72,
				73
			],
			"name":"group7.008"
		},
		{
			"children":[
				71,
				74
			],
			"name":"group10.002"
		},
		{
			"name":"pCube21.013"
		},
		{
			"name":"pCube22.013"
		},
		{
			"children":[
				76,
				77
			],
			"name":"group6.006"
		},
		{
			"name":"pCube21.012"
		},
		{
			"name":"pCube22.012"
		},
		{
			"children":[
				79,
				80
			],
			"name":"group7.006"
		},
		{
			"children":[
				78,
				81
			],
			"name":"group8.002"
		},
		{
			"name":"pCube21.015"
		},
		{
			"name":"pCube22.015"
		},
		{
			"children":[
				83,
				84
			],
			"name":"group6.007"
		},
		{
			"name":"pCube21.014"
		},
		{
			"name":"pCube22.014"
		},
		{
			"children":[
				86,
				87
			],
			"name":"group7.007"
		},
		{
			"children":[
				85,
				88
			],
			"name":"group9.002"
		},
		{
			"children":[
				75,
				82,
				89
			],
			"name":"group14.002"
		},
		{
			"name":"pCube23.002"
		},
		{
			"name":"pCube24.002"
		},
		{
			"name":"pCube25.002"
		},
		{
			"children":[
				91,
				92,
				93
			],
			"name":"twig.002"
		},
		{
			"name":"yellow_gem1.002"
		},
		{
			"children":[
				90,
				94,
				95
			],
			"name":"with_t"
		},
		{
			"name":"pCube21.011"
		},
		{
			"name":"pCube22.011"
		},
		{
			"children":[
				97,
				98
			],
			"name":"group6.005"
		},
		{
			"name":"pCube21.010"
		},
		{
			"name":"pCube22.010"
		},
		{
			"children":[
				100,
				101
			],
			"name":"group7.005"
		},
		{
			"children":[
				99,
				102
			],
			"name":"group10.001"
		},
		{
			"name":"pCube21.007"
		},
		{
			"name":"pCube22.007"
		},
		{
			"children":[
				104,
				105
			],
			"name":"group6.003"
		},
		{
			"name":"pCube21.006"
		},
		{
			"name":"pCube22.006"
		},
		{
			"children":[
				107,
				108
			],
			"name":"group7.003"
		},
		{
			"children":[
				106,
				109
			],
			"name":"group8.001"
		},
		{
			"name":"pCube21.009"
		},
		{
			"name":"pCube22.009"
		},
		{
			"children":[
				111,
				112
			],
			"name":"group6.004"
		},
		{
			"name":"pCube21.008"
		},
		{
			"name":"pCube22.008"
		},
		{
			"children":[
				114,
				115
			],
			"name":"group7.004"
		},
		{
			"children":[
				113,
				116
			],
			"name":"group9.001"
		},
		{
			"children":[
				103,
				110,
				117
			],
			"name":"group14.001"
		},
		{
			"name":"pCube23.001"
		},
		{
			"name":"pCube24.001"
		},
		{
			"name":"pCube25.001"
		},
		{
			"children":[
				119,
				120,
				121
			],
			"name":"twig.001"
		},
		{
			"name":"yellow_gem1.001"
		},
		{
			"children":[
				118,
				122,
				123
			],
			"name":"with_t1"
		},
		{
			"name":"pCube21.005"
		},
		{
			"name":"pCube22.005"
		},
		{
			"children":[
				125,
				126
			],
			"name":"group6.002"
		},
		{
			"name":"pCube21.004"
		},
		{
			"name":"pCube22.004"
		},
		{
			"children":[
				128,
				129
			],
			"name":"group7.002"
		},
		{
			"children":[
				127,
				130
			],
			"name":"group10"
		},
		{
			"name":"pCube21.001"
		},
		{
			"name":"pCube22.001"
		},
		{
			"children":[
				132,
				133
			],
			"name":"group6"
		},
		{
			"name":"pCube21"
		},
		{
			"name":"pCube22"
		},
		{
			"children":[
				135,
				136
			],
			"name":"group7"
		},
		{
			"children":[
				134,
				137
			],
			"name":"group8"
		},
		{
			"name":"pCube21.003"
		},
		{
			"name":"pCube22.003"
		},
		{
			"children":[
				139,
				140
			],
			"name":"group6.001"
		},
		{
			"name":"pCube21.002"
		},
		{
			"name":"pCube22.002"
		},
		{
			"children":[
				142,
				143
			],
			"name":"group7.001"
		},
		{
			"children":[
				141,
				144
			],
			"name":"group9"
		},
		{
			"children":[
				131,
				138,
				145
			],
			"name":"group14"
		},
		{
			"name":"pCube23"
		},
		{
			"name":"pCube24"
		},
		{
			"name":"pCube25"
		},
		{
			"children":[
				147,
				148,
				149
			],
			"name":"twig"
		},
		{
			"name":"yellow_gem1"
		},
		{
			"children":[
				146,
				150,
				151
			],
			"name":"with_t2"
		},
		{
			"children":[
				22,
				45,
				68,
				96,
				124,
				152
			],
			"name":"flowers"
		},
		{
			"children":[
				153
			],
			"name":"RootNode"
		},
		{
			"children":[
				154
			],
			"name":"983cdfc67b8949e499a3eeb2ed1145d1.fbx",
			"rotation":[
				0.70710688829422,
				0,
				0,
				0.7071066498756409
			]
		},
		{
			"children":[
				155
			],
			"name":"Sketchfab_model",
			"rotation":[
				-0.70710688829422,
				0,
				0,
				0.7071066498756409
			],
			"scale":[
				0.03720325231552124,
				0.03720324859023094,
				0.03720324859023094
			]
		},
		{
			"mesh":0,
			"name":"Object_2",
			"scale":[
				0.062261827290058136,
				0.062261827290058136,
				0.062261827290058136
			]
		},
		{
			"children":[
				157
			],
			"name":"aac6d3af1717478786bd50f7c006ca5e.stl.cleaner.materialmerger.gle"
		},
		{
			"children":[
				158
			],
			"name":"Sketchfab_model.001",
			"rotation":[
				-0.70710688829422,
				0,
				0,
				0.7071066498756409
			]
		},
		{
			"name":"Object_4"
		},
		{
			"children":[
				160
			],
			"name":"Camera",
			"rotation":[
				-0.21255727112293243,
				0.9047970175743103,
				-0.08438936620950699,
				0.35922175645828247
			],
			"scale":[
				99.99999237060547,
				100,
				99.99999237060547
			],
			"translation":[
				735.88916015625,
				495.8309020996094,
				692.5790405273438
			]
		},
		{
			"mesh":1,
			"name":"Cube_Material.001_0",
			"scale":[
				0.260789692401886,
				0.2607897222042084,
				0.260789692401886
			],
			"translation":[
				-1.0138936042785645,
				0,
				-2.0834708213806152
			]
		},
		{
			"children":[
				162
			],
			"name":"Cube",
			"rotation":[
				-0.70710688829422,
				0,
				0,
				0.7071066498756409
			],
			"scale":[
				85.89337158203125,
				35.262813568115234,
				29.270347595214844
			]
		},
		{
			"children":[
				161,
				163
			],
			"name":"RootNode.001"
		},
		{
			"children":[
				164
			],
			"name":"21193f5799f6421ab1b80ec2f9bea28d.fbx",
			"rotation":[
				0.70710688829422,
				0,
				0,
				0.7071066498756409
			],
			"scale":[
				0.009999999776482582,
				0.010000000707805157,
				0.010000000707805157
			]
		},
		{
			"children":[
				165
			],
			"name":"Sketchfab_model.002",
			"rotation":[
				-0.70710688829422,
				0,
				0,
				0.7071066498756409
			]
		},
		{
			"mesh":2,
			"name":"Cube_Material.001_0.001",
			"scale":[
				0.260789692401886,
				0.2607897222042084,
				0.260789692401886
			],
			"translation":[
				-1.0138936042785645,
				0,
				-2.0834708213806152
			]
		},
		{
			"children":[
				167
			],
			"name":"Cube.001",
			"rotation":[
				-0.70710688829422,
				0,
				0,
				0.7071066498756409
			],
			"scale":[
				85.89337158203125,
				35.262813568115234,
				29.270347595214844
			]
		},
		{
			"children":[
				168
			],
			"name":"RootNode.002"
		},
		{
			"children":[
				169
			],
			"name":"21193f5799f6421ab1b80ec2f9bea28d.fbx.001",
			"rotation":[
				0.70710688829422,
				0,
				0,
				0.7071066498756409
			],
			"scale":[
				0.009999999776482582,
				0.010000000707805157,
				0.010000000707805157
			]
		},
		{
			"children":[
				170
			],
			"name":"Sketchfab_model.003",
			"rotation":[
				-0.70710688829422,
				0,
				0,
				0.7071066498756409
			],
			"translation":[
				1.2243918180465698,
				-0.4359383285045624,
				0
			]
		}
	],
	"animations":[
		{
			"channels":[
				{
					"sampler":0,
					"target":{
						"node":157,
						"path":"translation"
					}
				}
			],
			"name":"Movement3",
			"samplers":[
				{
					"input":10,
					"interpolation":"LINEAR",
					"output":11
				}
			]
		},
		{
			"channels":[
				{
					"sampler":0,
					"target":{
						"node":162,
						"path":"translation"
					}
				}
			],
			"name":"Movement1",
			"samplers":[
				{
					"input":10,
					"interpolation":"LINEAR",
					"output":12
				}
			]
		},
		{
			"channels":[
				{
					"sampler":0,
					"target":{
						"node":167,
						"path":"translation"
					}
				}
			],
			"name":"Movement2",
			"samplers":[
				{
					"input":10,
					"interpolation":"LINEAR",
					"output":13
				}
			]
		}
	],
	"materials":[
		{
			"doubleSided":true,
			"name":"Scene_-_Root",
			"pbrMetallicRoughness":{
				"metallicFactor":0,
				"roughnessFactor":0.6000000238418579
			}
		},
		{
			"doubleSided":true,
			"name":"Material.001",
			"pbrMetallicRoughness":{
				"baseColorFactor":[
					0.800000011920929,
					0.6307590007781982,
					0,
					1
				],
				"metallicFactor":0,
				"roughnessFactor":0.8610957264900208
			}
		},
		{
			"doubleSided":true,
			"name":"Material.002",
			"pbrMetallicRoughness":{
				"baseColorFactor":[
					0.800000011920929,
					0.6307590007781982,
					0,
					1
				],
				"metallicFactor":0,
				"roughnessFactor":0.8610957264900208
			}
		}
	],
	"meshes":[
		{
			"name":"Object_0",
			"primitives":[
				{
					"attributes":{
						"POSITION":0,
						"NORMAL":1
					},
					"indices":2,
					"material":0
				}
			]
		},
		{
			"name":"Cube_Material.001_0",
			"primitives":[
				{
					"attributes":{
						"POSITION":3,
						"NORMAL":4,
						"TEXCOORD_0":5
					},
					"indices":6,
					"material":1
				}
			]
		},
		{
			"name":"Cube_Material.001_0.001",
			"primitives":[
				{
					"attributes":{
						"POSITION":7,
						"NORMAL":8,
						"TEXCOORD_0":9
					},
					"indices":6,
					"material":2
				}
			]
		}
	],
	"accessors":[
		{
			"bufferView":0,
			"componentType":5126,
			"count":608,
			"max":[
				28.04122543334961,
				11.950305938720703,
				15.135663032531738
			],
			"min":[
				-30.608776092529297,
				-15.251689910888672,
				-9.5303373336792
			],
			"type":"VEC3"
		},
		{
			"bufferView":1,
			"componentType":5126,
			"count":608,
			"type":"VEC3"
		},
		{
			"bufferView":2,
			"componentType":5123,
			"count":2232,
			"type":"SCALAR"
		},
		{
			"bufferView":3,
			"componentType":5126,
			"count":72,
			"max":[
				1.860912561416626,
				1.2171138525009155,
				9.756083488464355
			],
			"min":[
				-1.7857537269592285,
				-1.1412250995635986,
				-9.743846893310547
			],
			"type":"VEC3"
		},
		{
			"bufferView":4,
			"componentType":5126,
			"count":72,
			"type":"VEC3"
		},
		{
			"bufferView":5,
			"componentType":5126,
			"count":72,
			"type":"VEC2"
		},
		{
			"bufferView":6,
			"componentType":5123,
			"count":108,
			"type":"SCALAR"
		},
		{
			"bufferView":7,
			"componentType":5126,
			"count":72,
			"max":[
				1.860912561416626,
				1.2171138525009155,
				9.756083488464355
			],
			"min":[
				-1.7857537269592285,
				-1.1412250995635986,
				-9.743846893310547
			],
			"type":"VEC3"
		},
		{
			"bufferView":8,
			"componentType":5126,
			"count":72,
			"type":"VEC3"
		},
		{
			"bufferView":9,
			"componentType":5126,
			"count":72,
			"type":"VEC2"
		},
		{
			"bufferView":10,
			"componentType":5126,
			"count":25,
			"max":[
				1
			],
			"min":[
				0
			],
			"type":"SCALAR"
		},
		{
			"bufferView":11,
			"componentType":5126,
			"count":25,
			"type":"VEC3"
		},
		{
			"bufferView":12,
			"componentType":5126,
			"count":25,
			"type":"VEC3"
		},
		{
			"bufferView":13,
			"componentType":5126,
			"count":25,
			"type":"VEC3"
		}
	],
	"bufferViews":[
		{
			"buffer":0,
			"byteLength":7296,
			"byteOffset":0,
			"target":34962
		},
		{
			"buffer":0,
			"byteLength":7296,
			"byteOffset":7296,
			"target":34962
		},
		{
			"buffer":0,
			"byteLength":4464,
			"byteOffset":14592,
			"target":34963
		},
		{
			"buffer":0,
			"byteLength":864,
			"byteOffset":19056,
			"target":34962
		},
		{
			"buffer":0,
			"byteLength":864,
			"byteOffset":19920,
			"target":34962
		},
		{
			"buffer":0,
			"byteLength":576,
			"byteOffset":20784,
			"target":34962
		},
		{
			"buffer":0,
			"byteLength":216,
			"byteOffset":21360,
			"target":34963
		},
		{
			"buffer":0,
			"byteLength":864,
			"byteOffset":21576,
			"target":34962
		},
		{
			"buffer":0,
			"byteLength":864,
			"byteOffset":22440,
			"target":34962
		},
		{
			"buffer":0,
			"byteLength":576,
			"byteOffset":23304,
			"target":34962
		},
		{
			"buffer":0,
			"byteLength":100,
			"byteOffset":23880
		},
		{
			"buffer":0,
			"byteLength":300,
			"byteOffset":23980
		},
		{
			"buffer":0,
			"byteLength":300,
			"byteOffset":24280
		},
		{
			"buffer":0,
			"byteLength":300,
			"byteOffset":24580
		}
	],
	"buffers":[
		{
			"byteLength":24880,
			"uri":"cloud_thunder.bin"
		}
	]
}
