{
	"asset":{
		"generator":"Khronos glTF Blender I/O v4.1.62",
		"version":"2.0"
	},
	"scene":0,
	"scenes":[
		{
			"name":"Scene",
			"nodes":[
				0
			]
		}
	],
	"nodes":[
		{
			"mesh":0,
			"name":"Plane",
			"scale":[
				10.006327629089355,
				10.006327629089355,
				10.006327629089355
			]
		}
	],
	"materials":[
		{
			"doubleSided":true,
			"name":"ground_green",
			"pbrMetallicRoughness":{
				"baseColorFactor":[
					0.044688642024993896,
					0.27056002616882324,
					0,
					1
				],
				"metallicFactor":0
			}
		},
		{
			"doubleSided":true,
			"name":"ground_brown",
			"pbrMetallicRoughness":{
				"baseColorFactor":[
					0.17904895544052124,
					0.10063846409320831,
					0.01601821929216385,
					1
				],
				"metallicFactor":0
			}
		}
	],
	"meshes":[
		{
			"name":"Plane",
			"primitives":[
				{
					"attributes":{
						"POSITION":0,
						"NORMAL":1,
						"TEXCOORD_0":2
					},
					"indices":3,
					"material":0
				},
				{
					"attributes":{
						"POSITION":4,
						"NORMAL":5,
						"TEXCOORD_0":6
					},
					"indices":7,
					"material":1
				}
			]
		}
	],
	"accessors":[
		{
			"bufferView":0,
			"componentType":5126,
			"count":869,
			"max":[
				0.9375,
				0.2813815176486969,
				0.9375
			],
			"min":[
				-1,
				0.05090530216693878,
				-0.9375
			],
			"type":"VEC3"
		},
		{
			"bufferView":1,
			"componentType":5126,
			"count":869,
			"type":"VEC3"
		},
		{
			"bufferView":2,
			"componentType":5126,
			"count":869,
			"type":"VEC2"
		},
		{
			"bufferView":3,
			"componentType":5123,
			"count":4848,
			"type":"SCALAR"
		},
		{
			"bufferView":4,
			"componentType":5126,
			"count":340,
			"max":[
				1,
				0.2813815176486969,
				1
			],
			"min":[
				-1,
				0.002220952184870839,
				-1
			],
			"type":"VEC3"
		},
		{
			"bufferView":5,
			"componentType":5126,
			"count":340,
			"type":"VEC3"
		},
		{
			"bufferView":6,
			"componentType":5126,
			"count":340,
			"type":"VEC2"
		},
		{
			"bufferView":7,
			"componentType":5123,
			"count":1296,
			"type":"SCALAR"
		}
	],
	"bufferViews":[
		{
			"buffer":0,
			"byteLength":10428,
			"byteOffset":0,
			"target":34962
		},
		{
			"buffer":0,
			"byteLength":10428,
			"byteOffset":10428,
			"target":34962
		},
		{
			"buffer":0,
			"byteLength":6952,
			"byteOffset":20856,
			"target":34962
		},
		{
			"buffer":0,
			"byteLength":9696,
			"byteOffset":27808,
			"target":34963
		},
		{
			"buffer":0,
			"byteLength":4080,
			"byteOffset":37504,
			"target":34962
		},
		{
			"buffer":0,
			"byteLength":4080,
			"byteOffset":41584,
			"target":34962
		},
		{
			"buffer":0,
			"byteLength":2720,
			"byteOffset":45664,
			"target":34962
		},
		{
			"buffer":0,
			"byteLength":2592,
			"byteOffset":48384,
			"target":34963
		}
	],
	"buffers":[
		{
			"byteLength":50976,
			"uri":"ground.bin"
		}
	]
}
