{
  "accessors": [
    {
      "bufferView": 2,
      "componentType": 5126,
      "count": 3867,
      "max": [
        414.1969299316406,
        60.5,
        129.0
      ],
      "min": [
        -394.0,
        -60.5,
        -152.56857299804688
      ],
      "type": "VEC3"
    },
    {
      "bufferView": 2,
      "byteOffset": 46404,
      "componentType": 5126,
      "count": 3867,
      "max": [
        0.9978607892990112,
        1.0,
        0.9978607892990112
      ],
      "min": [
        -0.9978607892990112,
        -1.0,
        -0.9978607892990112
      ],
      "type": "VEC3"
    },
    {
      "bufferView": 1,
      "componentType": 5126,
      "count": 3867,
      "max": [
        1.0,
        1.0
      ],
      "min": [
        0.0,
        0.0
      ],
      "type": "VEC2"
    },
    {
      "bufferView": 0,
      "componentType": 5125,
      "count": 20580,
      "type": "SCALAR"
    }
  ],
  "asset": {
    "extras": {
      "author": "Khairulddin.Joha (https://sketchfab.com/Khairulddin.Joha)",
      "license": "CC-BY-4.0 (http://creativecommons.org/licenses/by/4.0/)",
      "source": "https://sketchfab.com/3d-models/speech-bubble-01-b286a2bb0f7341b294124f71cca36bd7",
      "title": "Speech Bubble 01"
    },
    "generator": "Sketchfab-12.66.0",
    "version": "2.0"
  },
  "bufferViews": [
    {
      "buffer": 0,
      "byteLength": 82320,
      "name": "floatBufferViews",
      "target": 34963
    },
    {
      "buffer": 0,
      "byteLength": 30936,
      "byteOffset": 82320,
      "byteStride": 8,
      "name": "floatBufferViews",
      "target": 34962
    },
    {
      "buffer": 0,
      "byteLength": 92808,
      "byteOffset": 113256,
      "byteStride": 12,
      "name": "floatBufferViews",
      "target": 34962
    }
  ],
  "buffers": [
    {
      "byteLength": 206064,
      "uri": "speech_bubble.bin"
    }
  ],
  "materials": [
    {
      "doubleSided": true,
      "name": "default",
      "pbrMetallicRoughness": {
        "metallicFactor": 0.0,
        "roughnessFactor": 0.6
      }
    }
  ],
  "meshes": [
    {
      "name": "Object_0",
      "primitives": [
        {
          "attributes": {
            "NORMAL": 1,
            "POSITION": 0,
            "TEXCOORD_0": 2
          },
          "indices": 3,
          "material": 0,
          "mode": 4
        }
      ]
    }
  ],
  "nodes": [
    {
      "children": [
        1
      ],
      "matrix": [
        1.0,
        1.6081226229577292e-16,
        5.356124287284811e-32,
        0.0,
        -8.006836424271825e-33,
        3.828568672208042e-16,
        -1.0,
        0.0,
        -1.6081226229577292e-16,
        1.0,
        3.828568672208042e-16,
        0.0,
        -1.7763568394002505e-15,
        -1.776356839400251e-15,
        1.8951354225607734e-15,
        1.0
      ],
      "name": "Sketchfab_model"
    },
    {
      "children": [
        2
      ],
      "name": "825b925052bc496eaf9d8d8170a39d0a.obj.cleaner.materialmerger.gles"
    },
    {
      "mesh": 0,
      "name": "Object_2"
    }
  ],
  "scene": 0,
  "scenes": [
    {
      "name": "Sketchfab_Scene",
      "nodes": [
        0
      ]
    }
  ]
}
