{
	"asset":{
		"generator":"Khronos glTF Blender I/O v4.1.62",
		"version":"2.0"
	},
	"scene":0,
	"scenes":[
		{
			"name":"Scene",
			"nodes":[
				0,
				1,
				2,
				3,
				4,
				5,
				6,
				7,
				8
			]
		}
	],
	"nodes":[
		{
			"name":"Cube",
			"translation":[
				0.007401406764984131,
				0.013562042266130447,
				0.21589326858520508
			]
		},
		{
			"mesh":0,
			"name":"Icosphere",
			"rotation":[
				-0.28828343749046326,
				-0.13170601427555084,
				-0.05307348817586899,
				0.946958065032959
			],
			"scale":[
				0.44535118341445923,
				0.44535118341445923,
				0.44535118341445923
			],
			"translation":[
				1.7041244506835938,
				2.1833627223968506,
				0.29246270656585693
			]
		},
		{
			"mesh":1,
			"name":"Icosphere.001",
			"rotation":[
				-0.298190712928772,
				0.23498719930648804,
				-0.21629635989665985,
				0.8994883298873901
			],
			"scale":[
				0.44870463013648987,
				0.44870463013648987,
				0.44870463013648987
			],
			"translation":[
				1.2219276428222656,
				2.702932119369507,
				-0.32555150985717773
			]
		},
		{
			"mesh":2,
			"name":"Icosphere.002",
			"rotation":[
				0.13437600433826447,
				0.12287958711385727,
				-0.45805037021636963,
				0.8700767755508423
			],
			"scale":[
				0.26486527919769287,
				0.26486527919769287,
				0.26486530900001526
			],
			"translation":[
				-0.3568344712257385,
				2.6436829566955566,
				-0.07397043704986572
			]
		},
		{
			"mesh":3,
			"name":"Icosphere.003",
			"rotation":[
				0.11123108863830566,
				-0.3122600018978119,
				-0.37225401401519775,
				0.8669188618659973
			],
			"scale":[
				0.4671068787574768,
				0.46710681915283203,
				0.4671068787574768
			],
			"translation":[
				-0.8782272934913635,
				2.4340322017669678,
				0.18854880332946777
			]
		},
		{
			"mesh":4,
			"name":"Icosphere.004",
			"rotation":[
				0.17130105197429657,
				0.09847971051931381,
				0.5079928636550903,
				0.838391900062561
			],
			"scale":[
				0.3939916491508484,
				0.393991619348526,
				0.3939916491508484
			],
			"translation":[
				-1.2419252395629883,
				1.8871169090270996,
				-0.128662109375
			]
		},
		{
			"mesh":5,
			"name":"Icosphere.005",
			"rotation":[
				-0.45107120275497437,
				0.5011457800865173,
				-0.2952045500278473,
				0.6769357323646545
			],
			"scale":[
				0.15087012946605682,
				0.15087011456489563,
				0.15087011456489563
			],
			"translation":[
				0.8983611464500427,
				2.3203325271606445,
				0.22659170627593994
			]
		},
		{
			"mesh":6,
			"name":"Icosphere.006",
			"rotation":[
				0.045651644468307495,
				0.05478936433792114,
				-0.22663508355617523,
				0.9713653326034546
			],
			"scale":[
				0.12360318750143051,
				0.12360318750143051,
				0.12360319495201111
			],
			"translation":[
				-0.22190386056900024,
				2.087893486022949,
				0.11173951625823975
			]
		},
		{
			"name":"Cube.001",
			"translation":[
				0.007401406764984131,
				0.013562042266130447,
				0.21589326858520508
			]
		}
	],
	"materials":[
		{
			"doubleSided":true,
			"name":"tree_green1",
			"pbrMetallicRoughness":{
				"baseColorFactor":[
					0.12154127657413483,
					0.4463566541671753,
					0.0005580664146691561,
					1
				],
				"metallicFactor":0
			}
		},
		{
			"doubleSided":true,
			"name":"tree_green2",
			"pbrMetallicRoughness":{
				"baseColorFactor":[
					0.05843798816204071,
					0.422518253326416,
					0,
					1
				],
				"metallicFactor":0
			}
		},
		{
			"doubleSided":true,
			"name":"tree_green3",
			"pbrMetallicRoughness":{
				"baseColorFactor":[
					0.31135767698287964,
					1,
					0,
					1
				],
				"metallicFactor":0
			}
		}
	],
	"meshes":[
		{
			"name":"Icosphere",
			"primitives":[
				{
					"attributes":{
						"POSITION":0,
						"NORMAL":1,
						"TEXCOORD_0":2
					},
					"indices":3,
					"material":0
				}
			]
		},
		{
			"name":"Icosphere.001",
			"primitives":[
				{
					"attributes":{
						"POSITION":4,
						"NORMAL":5,
						"TEXCOORD_0":6
					},
					"indices":3,
					"material":0
				}
			]
		},
		{
			"name":"Icosphere.002",
			"primitives":[
				{
					"attributes":{
						"POSITION":7,
						"NORMAL":8,
						"TEXCOORD_0":9
					},
					"indices":3,
					"material":1
				}
			]
		},
		{
			"name":"Icosphere.003",
			"primitives":[
				{
					"attributes":{
						"POSITION":10,
						"NORMAL":11,
						"TEXCOORD_0":12
					},
					"indices":3,
					"material":0
				}
			]
		},
		{
			"name":"Icosphere.004",
			"primitives":[
				{
					"attributes":{
						"POSITION":13,
						"NORMAL":14,
						"TEXCOORD_0":15
					},
					"indices":3,
					"material":1
				}
			]
		},
		{
			"name":"Icosphere.005",
			"primitives":[
				{
					"attributes":{
						"POSITION":16,
						"NORMAL":17,
						"TEXCOORD_0":18
					},
					"indices":3,
					"material":2
				}
			]
		},
		{
			"name":"Icosphere.006",
			"primitives":[
				{
					"attributes":{
						"POSITION":19,
						"NORMAL":20,
						"TEXCOORD_0":21
					},
					"indices":3,
					"material":2
				}
			]
		}
	],
	"accessors":[
		{
			"bufferView":0,
			"componentType":5126,
			"count":60,
			"max":[
				0.8944249749183655,
				1,
				0.8506399989128113
			],
			"min":[
				-0.8944249749183655,
				-1,
				-0.8506399989128113
			],
			"type":"VEC3"
		},
		{
			"bufferView":1,
			"componentType":5126,
			"count":60,
			"type":"VEC3"
		},
		{
			"bufferView":2,
			"componentType":5126,
			"count":60,
			"type":"VEC2"
		},
		{
			"bufferView":3,
			"componentType":5123,
			"count":60,
			"type":"SCALAR"
		},
		{
			"bufferView":4,
			"componentType":5126,
			"count":60,
			"max":[
				0.8944249749183655,
				1,
				0.8506399989128113
			],
			"min":[
				-0.8944249749183655,
				-1,
				-0.8506399989128113
			],
			"type":"VEC3"
		},
		{
			"bufferView":5,
			"componentType":5126,
			"count":60,
			"type":"VEC3"
		},
		{
			"bufferView":6,
			"componentType":5126,
			"count":60,
			"type":"VEC2"
		},
		{
			"bufferView":7,
			"componentType":5126,
			"count":60,
			"max":[
				0.8944249749183655,
				1,
				0.8506399989128113
			],
			"min":[
				-0.8944249749183655,
				-1,
				-0.8506399989128113
			],
			"type":"VEC3"
		},
		{
			"bufferView":8,
			"componentType":5126,
			"count":60,
			"type":"VEC3"
		},
		{
			"bufferView":9,
			"componentType":5126,
			"count":60,
			"type":"VEC2"
		},
		{
			"bufferView":10,
			"componentType":5126,
			"count":60,
			"max":[
				0.8944249749183655,
				1,
				0.8506399989128113
			],
			"min":[
				-0.8944249749183655,
				-1,
				-0.8506399989128113
			],
			"type":"VEC3"
		},
		{
			"bufferView":11,
			"componentType":5126,
			"count":60,
			"type":"VEC3"
		},
		{
			"bufferView":12,
			"componentType":5126,
			"count":60,
			"type":"VEC2"
		},
		{
			"bufferView":13,
			"componentType":5126,
			"count":60,
			"max":[
				0.8944249749183655,
				1,
				0.8506399989128113
			],
			"min":[
				-0.8944249749183655,
				-1,
				-0.8506399989128113
			],
			"type":"VEC3"
		},
		{
			"bufferView":14,
			"componentType":5126,
			"count":60,
			"type":"VEC3"
		},
		{
			"bufferView":15,
			"componentType":5126,
			"count":60,
			"type":"VEC2"
		},
		{
			"bufferView":16,
			"componentType":5126,
			"count":60,
			"max":[
				0.8944249749183655,
				1,
				0.8506399989128113
			],
			"min":[
				-0.8944249749183655,
				-1,
				-0.8506399989128113
			],
			"type":"VEC3"
		},
		{
			"bufferView":17,
			"componentType":5126,
			"count":60,
			"type":"VEC3"
		},
		{
			"bufferView":18,
			"componentType":5126,
			"count":60,
			"type":"VEC2"
		},
		{
			"bufferView":19,
			"componentType":5126,
			"count":60,
			"max":[
				0.8944249749183655,
				1,
				0.8506399989128113
			],
			"min":[
				-0.8944249749183655,
				-1,
				-0.8506399989128113
			],
			"type":"VEC3"
		},
		{
			"bufferView":20,
			"componentType":5126,
			"count":60,
			"type":"VEC3"
		},
		{
			"bufferView":21,
			"componentType":5126,
			"count":60,
			"type":"VEC2"
		}
	],
	"bufferViews":[
		{
			"buffer":0,
			"byteLength":720,
			"byteOffset":0,
			"target":34962
		},
		{
			"buffer":0,
			"byteLength":720,
			"byteOffset":720,
			"target":34962
		},
		{
			"buffer":0,
			"byteLength":480,
			"byteOffset":1440,
			"target":34962
		},
		{
			"buffer":0,
			"byteLength":120,
			"byteOffset":1920,
			"target":34963
		},
		{
			"buffer":0,
			"byteLength":720,
			"byteOffset":2040,
			"target":34962
		},
		{
			"buffer":0,
			"byteLength":720,
			"byteOffset":2760,
			"target":34962
		},
		{
			"buffer":0,
			"byteLength":480,
			"byteOffset":3480,
			"target":34962
		},
		{
			"buffer":0,
			"byteLength":720,
			"byteOffset":3960,
			"target":34962
		},
		{
			"buffer":0,
			"byteLength":720,
			"byteOffset":4680,
			"target":34962
		},
		{
			"buffer":0,
			"byteLength":480,
			"byteOffset":5400,
			"target":34962
		},
		{
			"buffer":0,
			"byteLength":720,
			"byteOffset":5880,
			"target":34962
		},
		{
			"buffer":0,
			"byteLength":720,
			"byteOffset":6600,
			"target":34962
		},
		{
			"buffer":0,
			"byteLength":480,
			"byteOffset":7320,
			"target":34962
		},
		{
			"buffer":0,
			"byteLength":720,
			"byteOffset":7800,
			"target":34962
		},
		{
			"buffer":0,
			"byteLength":720,
			"byteOffset":8520,
			"target":34962
		},
		{
			"buffer":0,
			"byteLength":480,
			"byteOffset":9240,
			"target":34962
		},
		{
			"buffer":0,
			"byteLength":720,
			"byteOffset":9720,
			"target":34962
		},
		{
			"buffer":0,
			"byteLength":720,
			"byteOffset":10440,
			"target":34962
		},
		{
			"buffer":0,
			"byteLength":480,
			"byteOffset":11160,
			"target":34962
		},
		{
			"buffer":0,
			"byteLength":720,
			"byteOffset":11640,
			"target":34962
		},
		{
			"buffer":0,
			"byteLength":720,
			"byteOffset":12360,
			"target":34962
		},
		{
			"buffer":0,
			"byteLength":480,
			"byteOffset":13080,
			"target":34962
		}
	],
	"buffers":[
		{
			"byteLength":13560,
			"uri":"tree.bin"
		}
	]
}
