{
	"asset":{
		"generator":"Khronos glTF Blender I/O v4.1.62",
		"version":"2.0"
	},
	"scene":0,
	"scenes":[
		{
			"name":"Scene",
			"nodes":[
				157
			]
		}
	],
	"nodes":[
		{
			"name":"pCube21.035"
		},
		{
			"name":"pCube22.035"
		},
		{
			"children":[
				0,
				1
			],
			"name":"group6.017"
		},
		{
			"name":"pCube21.034"
		},
		{
			"name":"pCube22.034"
		},
		{
			"children":[
				3,
				4
			],
			"name":"group7.017"
		},
		{
			"children":[
				2,
				5
			],
			"name":"group10.005"
		},
		{
			"name":"pCube21.031"
		},
		{
			"name":"pCube22.031"
		},
		{
			"children":[
				7,
				8
			],
			"name":"group6.015"
		},
		{
			"name":"pCube21.030"
		},
		{
			"name":"pCube22.030"
		},
		{
			"children":[
				10,
				11
			],
			"name":"group7.015"
		},
		{
			"children":[
				9,
				12
			],
			"name":"group8.005"
		},
		{
			"name":"pCube21.033"
		},
		{
			"name":"pCube22.033"
		},
		{
			"children":[
				14,
				15
			],
			"name":"group6.016"
		},
		{
			"name":"pCube21.032"
		},
		{
			"name":"pCube22.032"
		},
		{
			"children":[
				17,
				18
			],
			"name":"group7.016"
		},
		{
			"children":[
				16,
				19
			],
			"name":"group9.005"
		},
		{
			"name":"yellow_gem"
		},
		{
			"children":[
				6,
				13,
				20,
				21
			],
			"name":"group13"
		},
		{
			"name":"pCube21.029"
		},
		{
			"name":"pCube22.029"
		},
		{
			"children":[
				23,
				24
			],
			"name":"group6.014"
		},
		{
			"name":"pCube21.028"
		},
		{
			"name":"pCube22.028"
		},
		{
			"children":[
				26,
				27
			],
			"name":"group7.014"
		},
		{
			"children":[
				25,
				28
			],
			"name":"group10.004"
		},
		{
			"name":"pCube21.025"
		},
		{
			"mesh":0,
			"name":"pCube22_lambert7_0.007",
			"rotation":[
				0.70710688829422,
				0,
				0,
				0.7071066498756409
			]
		},
		{
			"children":[
				31
			],
			"name":"pCube22.025"
		},
		{
			"children":[
				30,
				32
			],
			"name":"group6.012"
		},
		{
			"name":"pCube21.024"
		},
		{
			"name":"pCube22.024"
		},
		{
			"children":[
				34,
				35
			],
			"name":"group7.012"
		},
		{
			"children":[
				33,
				36
			],
			"name":"group8.004"
		},
		{
			"name":"pCube21.027"
		},
		{
			"name":"pCube22.027"
		},
		{
			"children":[
				38,
				39
			],
			"name":"group6.013"
		},
		{
			"name":"pCube21.026"
		},
		{
			"name":"pCube22.026"
		},
		{
			"children":[
				41,
				42
			],
			"name":"group7.013"
		},
		{
			"children":[
				40,
				43
			],
			"name":"group9.004"
		},
		{
			"name":"yellow_gem2"
		},
		{
			"children":[
				29,
				37,
				44,
				45
			],
			"name":"group15"
		},
		{
			"name":"pCube21.023"
		},
		{
			"name":"pCube22.023"
		},
		{
			"children":[
				47,
				48
			],
			"name":"group6.011"
		},
		{
			"name":"pCube21.022"
		},
		{
			"name":"pCube22.022"
		},
		{
			"children":[
				50,
				51
			],
			"name":"group7.011"
		},
		{
			"children":[
				49,
				52
			],
			"name":"group10.003"
		},
		{
			"name":"pCube21.019"
		},
		{
			"name":"pCube22.019"
		},
		{
			"children":[
				54,
				55
			],
			"name":"group6.009"
		},
		{
			"name":"pCube21.018"
		},
		{
			"name":"pCube22.018"
		},
		{
			"children":[
				57,
				58
			],
			"name":"group7.009"
		},
		{
			"children":[
				56,
				59
			],
			"name":"group8.003"
		},
		{
			"name":"pCube21.021"
		},
		{
			"name":"pCube22.021"
		},
		{
			"children":[
				61,
				62
			],
			"name":"group6.010"
		},
		{
			"name":"pCube21.020"
		},
		{
			"name":"pCube22.020"
		},
		{
			"children":[
				64,
				65
			],
			"name":"group7.010"
		},
		{
			"children":[
				63,
				66
			],
			"name":"group9.003"
		},
		{
			"name":"yellow_gem3"
		},
		{
			"children":[
				53,
				60,
				67,
				68
			],
			"name":"group16"
		},
		{
			"name":"pCube21.017"
		},
		{
			"name":"pCube22.017"
		},
		{
			"children":[
				70,
				71
			],
			"name":"group6.008"
		},
		{
			"name":"pCube21.016"
		},
		{
			"name":"pCube22.016"
		},
		{
			"children":[
				73,
				74
			],
			"name":"group7.008"
		},
		{
			"children":[
				72,
				75
			],
			"name":"group10.002"
		},
		{
			"name":"pCube21.013"
		},
		{
			"name":"pCube22.013"
		},
		{
			"children":[
				77,
				78
			],
			"name":"group6.006"
		},
		{
			"name":"pCube21.012"
		},
		{
			"name":"pCube22.012"
		},
		{
			"children":[
				80,
				81
			],
			"name":"group7.006"
		},
		{
			"children":[
				79,
				82
			],
			"name":"group8.002"
		},
		{
			"name":"pCube21.015"
		},
		{
			"name":"pCube22.015"
		},
		{
			"children":[
				84,
				85
			],
			"name":"group6.007"
		},
		{
			"name":"pCube21.014"
		},
		{
			"name":"pCube22.014"
		},
		{
			"children":[
				87,
				88
			],
			"name":"group7.007"
		},
		{
			"children":[
				86,
				89
			],
			"name":"group9.002"
		},
		{
			"children":[
				76,
				83,
				90
			],
			"name":"group14.002"
		},
		{
			"name":"pCube23.002"
		},
		{
			"name":"pCube24.002"
		},
		{
			"name":"pCube25.002"
		},
		{
			"children":[
				92,
				93,
				94
			],
			"name":"twig.002"
		},
		{
			"name":"yellow_gem1.002"
		},
		{
			"children":[
				91,
				95,
				96
			],
			"name":"with_t"
		},
		{
			"name":"pCube21.011"
		},
		{
			"name":"pCube22.011"
		},
		{
			"children":[
				98,
				99
			],
			"name":"group6.005"
		},
		{
			"name":"pCube21.010"
		},
		{
			"name":"pCube22.010"
		},
		{
			"children":[
				101,
				102
			],
			"name":"group7.005"
		},
		{
			"children":[
				100,
				103
			],
			"name":"group10.001"
		},
		{
			"name":"pCube21.007"
		},
		{
			"name":"pCube22.007"
		},
		{
			"children":[
				105,
				106
			],
			"name":"group6.003"
		},
		{
			"name":"pCube21.006"
		},
		{
			"name":"pCube22.006"
		},
		{
			"children":[
				108,
				109
			],
			"name":"group7.003"
		},
		{
			"children":[
				107,
				110
			],
			"name":"group8.001"
		},
		{
			"name":"pCube21.009"
		},
		{
			"name":"pCube22.009"
		},
		{
			"children":[
				112,
				113
			],
			"name":"group6.004"
		},
		{
			"name":"pCube21.008"
		},
		{
			"name":"pCube22.008"
		},
		{
			"children":[
				115,
				116
			],
			"name":"group7.004"
		},
		{
			"children":[
				114,
				117
			],
			"name":"group9.001"
		},
		{
			"children":[
				104,
				111,
				118
			],
			"name":"group14.001"
		},
		{
			"name":"pCube23.001"
		},
		{
			"name":"pCube24.001"
		},
		{
			"name":"pCube25.001"
		},
		{
			"children":[
				120,
				121,
				122
			],
			"name":"twig.001"
		},
		{
			"name":"yellow_gem1.001"
		},
		{
			"children":[
				119,
				123,
				124
			],
			"name":"with_t1"
		},
		{
			"name":"pCube21.005"
		},
		{
			"name":"pCube22.005"
		},
		{
			"children":[
				126,
				127
			],
			"name":"group6.002"
		},
		{
			"name":"pCube21.004"
		},
		{
			"name":"pCube22.004"
		},
		{
			"children":[
				129,
				130
			],
			"name":"group7.002"
		},
		{
			"children":[
				128,
				131
			],
			"name":"group10"
		},
		{
			"name":"pCube21.001"
		},
		{
			"name":"pCube22.001"
		},
		{
			"children":[
				133,
				134
			],
			"name":"group6"
		},
		{
			"name":"pCube21"
		},
		{
			"name":"pCube22"
		},
		{
			"children":[
				136,
				137
			],
			"name":"group7"
		},
		{
			"children":[
				135,
				138
			],
			"name":"group8"
		},
		{
			"name":"pCube21.003"
		},
		{
			"name":"pCube22.003"
		},
		{
			"children":[
				140,
				141
			],
			"name":"group6.001"
		},
		{
			"name":"pCube21.002"
		},
		{
			"name":"pCube22.002"
		},
		{
			"children":[
				143,
				144
			],
			"name":"group7.001"
		},
		{
			"children":[
				142,
				145
			],
			"name":"group9"
		},
		{
			"children":[
				132,
				139,
				146
			],
			"name":"group14"
		},
		{
			"name":"pCube23"
		},
		{
			"name":"pCube24"
		},
		{
			"name":"pCube25"
		},
		{
			"children":[
				148,
				149,
				150
			],
			"name":"twig"
		},
		{
			"name":"yellow_gem1"
		},
		{
			"children":[
				147,
				151,
				152
			],
			"name":"with_t2"
		},
		{
			"children":[
				22,
				46,
				69,
				97,
				125,
				153
			],
			"name":"flowers"
		},
		{
			"children":[
				154
			],
			"name":"RootNode"
		},
		{
			"children":[
				155
			],
			"name":"983cdfc67b8949e499a3eeb2ed1145d1.fbx",
			"rotation":[
				0.70710688829422,
				0,
				0,
				0.7071066498756409
			]
		},
		{
			"children":[
				156
			],
			"name":"Sketchfab_model",
			"rotation":[
				-0.70710688829422,
				0,
				0,
				0.7071066498756409
			],
			"scale":[
				0.03720325231552124,
				0.03720324859023094,
				0.03720324859023094
			]
		}
	],
	"animations":[
		{
			"channels":[
				{
					"sampler":0,
					"target":{
						"node":31,
						"path":"rotation"
					}
				}
			],
			"name":"Rotate",
			"samplers":[
				{
					"input":8,
					"interpolation":"LINEAR",
					"output":9
				}
			]
		}
	],
	"materials":[
		{
			"doubleSided":true,
			"name":"lambert7",
			"pbrMetallicRoughness":{
				"baseColorFactor":[
					1,
					0.09000000357627869,
					0.4400010108947754,
					1
				],
				"metallicFactor":0,
				"roughnessFactor":0.6000000238418579
			}
		},
		{
			"doubleSided":true,
			"name":"yellowgem",
			"pbrMetallicRoughness":{
				"baseColorFactor":[
					1,
					0.5769169926643372,
					0,
					1
				],
				"metallicFactor":0,
				"roughnessFactor":0.6000000238418579
			}
		}
	],
	"meshes":[
		{
			"name":"pCube22_lambert7_0.007",
			"primitives":[
				{
					"attributes":{
						"POSITION":0,
						"NORMAL":1,
						"TEXCOORD_0":2
					},
					"indices":3,
					"material":0
				},
				{
					"attributes":{
						"POSITION":4,
						"NORMAL":5,
						"TEXCOORD_0":6
					},
					"indices":7,
					"material":1
				}
			]
		}
	],
	"accessors":[
		{
			"bufferView":0,
			"componentType":5126,
			"count":1536,
			"max":[
				20.621212005615234,
				6.842127323150635,
				20.62026596069336
			],
			"min":[
				-20.619335174560547,
				-4.844430446624756,
				-20.620304107666016
			],
			"type":"VEC3"
		},
		{
			"bufferView":1,
			"componentType":5126,
			"count":1536,
			"type":"VEC3"
		},
		{
			"bufferView":2,
			"componentType":5126,
			"count":1536,
			"type":"VEC2"
		},
		{
			"bufferView":3,
			"componentType":5123,
			"count":2304,
			"type":"SCALAR"
		},
		{
			"bufferView":4,
			"componentType":5126,
			"count":103,
			"max":[
				2.356311798095703,
				0.25958341360092163,
				2.3553848266601562
			],
			"min":[
				-2.3544273376464844,
				-1.7558813095092773,
				-2.355358123779297
			],
			"type":"VEC3"
		},
		{
			"bufferView":5,
			"componentType":5126,
			"count":103,
			"type":"VEC3"
		},
		{
			"bufferView":6,
			"componentType":5126,
			"count":103,
			"type":"VEC2"
		},
		{
			"bufferView":7,
			"componentType":5123,
			"count":144,
			"type":"SCALAR"
		},
		{
			"bufferView":8,
			"componentType":5126,
			"count":25,
			"max":[
				1
			],
			"min":[
				0
			],
			"type":"SCALAR"
		},
		{
			"bufferView":9,
			"componentType":5126,
			"count":25,
			"type":"VEC4"
		}
	],
	"bufferViews":[
		{
			"buffer":0,
			"byteLength":18432,
			"byteOffset":0,
			"target":34962
		},
		{
			"buffer":0,
			"byteLength":18432,
			"byteOffset":18432,
			"target":34962
		},
		{
			"buffer":0,
			"byteLength":12288,
			"byteOffset":36864,
			"target":34962
		},
		{
			"buffer":0,
			"byteLength":4608,
			"byteOffset":49152,
			"target":34963
		},
		{
			"buffer":0,
			"byteLength":1236,
			"byteOffset":53760,
			"target":34962
		},
		{
			"buffer":0,
			"byteLength":1236,
			"byteOffset":54996,
			"target":34962
		},
		{
			"buffer":0,
			"byteLength":824,
			"byteOffset":56232,
			"target":34962
		},
		{
			"buffer":0,
			"byteLength":288,
			"byteOffset":57056,
			"target":34963
		},
		{
			"buffer":0,
			"byteLength":100,
			"byteOffset":57344
		},
		{
			"buffer":0,
			"byteLength":400,
			"byteOffset":57444
		}
	],
	"buffers":[
		{
			"byteLength":57844,
			"uri":"untitled.bin"
		}
	]
}
