{
  "accessors": [
    {
      "bufferView": 2,
      "componentType": 5126,
      "count": 11288,
      "max": [
        0.3057509660720825,
        0.5334932804107666,
        1.7554035186767578
      ],
      "min": [
        -0.24646396934986115,
        0.07575575262308121,
        0.6783980131149292
      ],
      "type": "VEC3"
    },
    {
      "bufferView": 2,
      "byteOffset": 135456,
      "componentType": 5126,
      "count": 11288,
      "max": [
        0.9992579221725464,
        0.9987196326255798,
        0.5121193528175354
      ],
      "min": [
        -0.999669075012207,
        -0.999853253364563,
        -0.995657205581665
      ],
      "type": "VEC3"
    },
    {
      "bufferView": 3,
      "componentType": 5126,
      "count": 11288,
      "max": [
        0.9929056167602539,
        0.9995113015174866,
        0.8952077031135559,
        -1.0
      ],
      "min": [
        -0.995593786239624,
        -0.5086514949798584,
        -0.9999963641166687,
        -1.0
      ],
      "type": "VEC4"
    },
    {
      "bufferView": 1,
      "componentType": 5126,
      "count": 11288,
      "max": [
        1.0,
        1.0
      ],
      "min": [
        0.0,
        0.0
      ],
      "type": "VEC2"
    },
    {
      "bufferView": 1,
      "byteOffset": 90304,
      "componentType": 5126,
      "count": 11288,
      "max": [
        1.0,
        1.0
      ],
      "min": [
        0.0,
        0.0
      ],
      "type": "VEC2"
    },
    {
      "bufferView": 0,
      "componentType": 5125,
      "count": 32256,
      "type": "SCALAR"
    },
    {
      "bufferView": 2,
      "byteOffset": 270912,
      "componentType": 5126,
      "count": 33730,
      "max": [
        2.894108295440674,
        1.9718002080917358,
        10.172796249389648
      ],
      "min": [
        -2.6201937198638916,
        -2.891594409942627,
        0.008746147155761719
      ],
      "type": "VEC3"
    },
    {
      "bufferView": 2,
      "byteOffset": 675672,
      "componentType": 5126,
      "count": 33730,
      "max": [
        0.9999964237213135,
        0.9999910593032837,
        0.9999058246612549
      ],
      "min": [
        -0.9999752044677734,
        -0.9998700618743896,
        -0.999984860420227
      ],
      "type": "VEC3"
    },
    {
      "bufferView": 3,
      "byteOffset": 180608,
      "componentType": 5126,
      "count": 33730,
      "max": [
        0.999870240688324,
        0.9999527335166931,
        0.9999998211860657,
        1.0
      ],
      "min": [
        -0.9999565482139587,
        -0.9999119639396667,
        -0.9999919533729553,
        -1.0
      ],
      "type": "VEC4"
    },
    {
      "bufferView": 1,
      "byteOffset": 180608,
      "componentType": 5126,
      "count": 33730,
      "max": [
        0.9940155744552612,
        0.9881924986839294
      ],
      "min": [
        0.005984390154480934,
        0.005984390154480934
      ],
      "type": "VEC2"
    },
    {
      "bufferView": 1,
      "byteOffset": 450448,
      "componentType": 5126,
      "count": 33730,
      "max": [
        0.9940155744552612,
        0.9881924986839294
      ],
      "min": [
        0.005984390154480934,
        0.005984390154480934
      ],
      "type": "VEC2"
    },
    {
      "bufferView": 0,
      "byteOffset": 129024,
      "componentType": 5125,
      "count": 135408,
      "type": "SCALAR"
    },
    {
      "bufferView": 2,
      "byteOffset": 1080432,
      "componentType": 5126,
      "count": 2597,
      "max": [
        8.497002601623535,
        23.704139709472656,
        8.660308837890625
      ],
      "min": [
        -6.292940139770508,
        15.120018005371094,
        4.192081451416016
      ],
      "type": "VEC3"
    },
    {
      "bufferView": 2,
      "byteOffset": 1111596,
      "componentType": 5126,
      "count": 2597,
      "max": [
        0.9967458248138428,
        0.9959666132926941,
        0.9998640418052673
      ],
      "min": [
        -0.9961493611335754,
        -0.9975712299346924,
        -0.9923833608627319
      ],
      "type": "VEC3"
    },
    {
      "bufferView": 3,
      "byteOffset": 720288,
      "componentType": 5126,
      "count": 2597,
      "max": [
        0.997715413570404,
        0.9998300075531006,
        0.9997314214706421,
        1.0
      ],
      "min": [
        -0.984630286693573,
        -0.9141324162483215,
        -0.9969489574432373,
        -1.0
      ],
      "type": "VEC4"
    },
    {
      "bufferView": 1,
      "byteOffset": 720288,
      "componentType": 5126,
      "count": 2597,
      "max": [
        0.48258548974990845,
        0.41694632172584534
      ],
      "min": [
        0.002575505990535021,
        0.002575505990535021
      ],
      "type": "VEC2"
    },
    {
      "bufferView": 1,
      "byteOffset": 741064,
      "componentType": 5126,
      "count": 2597,
      "max": [
        0.48258548974990845,
        0.41694632172584534
      ],
      "min": [
        0.002575505990535021,
        0.002575505990535021
      ],
      "type": "VEC2"
    },
    {
      "bufferView": 0,
      "byteOffset": 670656,
      "componentType": 5125,
      "count": 8451,
      "type": "SCALAR"
    },
    {
      "bufferView": 2,
      "byteOffset": 1142760,
      "componentType": 5126,
      "count": 1046,
      "max": [
        -3.352187395095825,
        19.377246856689453,
        26.418354034423828
      ],
      "min": [
        -5.792619705200195,
        13.42367172241211,
        24.751113891601563
      ],
      "type": "VEC3"
    },
    {
      "bufferView": 2,
      "byteOffset": 1155312,
      "componentType": 5126,
      "count": 1046,
      "max": [
        0.999954342842102,
        0.9912310838699341,
        0.991590678691864
      ],
      "min": [
        -0.9999507665634155,
        -0.9895375370979309,
        -0.9915856719017029
      ],
      "type": "VEC3"
    },
    {
      "bufferView": 3,
      "byteOffset": 761840,
      "componentType": 5126,
      "count": 1046,
      "max": [
        0.9814748764038086,
        0.9621749520301819,
        0.9916914105415344,
        1.0
      ],
      "min": [
        -0.9999669194221497,
        -0.9622802734375,
        -0.8777207732200623,
        1.0
      ],
      "type": "VEC4"
    },
    {
      "bufferView": 1,
      "byteOffset": 761840,
      "componentType": 5126,
      "count": 1046,
      "max": [
        0.47068673372268677,
        0.9763232469558716
      ],
      "min": [
        0.03060441091656685,
        0.5224780440330505
      ],
      "type": "VEC2"
    },
    {
      "bufferView": 1,
      "byteOffset": 770208,
      "componentType": 5126,
      "count": 1046,
      "max": [
        0.47068673372268677,
        0.9763232469558716
      ],
      "min": [
        0.03060441091656685,
        0.5224780440330505
      ],
      "type": "VEC2"
    },
    {
      "bufferView": 0,
      "byteOffset": 704460,
      "componentType": 5125,
      "count": 2664,
      "type": "SCALAR"
    },
    {
      "bufferView": 2,
      "byteOffset": 1167864,
      "componentType": 5126,
      "count": 666,
      "max": [
        1.1271171569824219,
        1.6221692562103271,
        8.34123706817627
      ],
      "min": [
        -0.8420760035514832,
        -0.8371734619140625,
        7.042416095733643
      ],
      "type": "VEC3"
    },
    {
      "bufferView": 2,
      "byteOffset": 1175856,
      "componentType": 5126,
      "count": 666,
      "max": [
        0.9826837778091431,
        0.9451708793640137,
        0.9604798555374146
      ],
      "min": [
        -0.9853257536888123,
        -0.9662355184555054,
        -0.9459923505783081
      ],
      "type": "VEC3"
    },
    {
      "bufferView": 3,
      "byteOffset": 778576,
      "componentType": 5126,
      "count": 666,
      "max": [
        0.9988012313842773,
        0.9274030923843384,
        0.5773381590843201,
        -1.0
      ],
      "min": [
        -0.9998396635055542,
        -0.9452885985374451,
        -0.5420273542404175,
        -1.0
      ],
      "type": "VEC4"
    },
    {
      "bufferView": 1,
      "byteOffset": 778576,
      "componentType": 5126,
      "count": 666,
      "max": [
        0.9389517307281494,
        0.9513533115386963
      ],
      "min": [
        0.7989416122436523,
        0.8113431930541992
      ],
      "type": "VEC2"
    },
    {
      "bufferView": 1,
      "byteOffset": 783904,
      "componentType": 5126,
      "count": 666,
      "max": [
        0.9389517307281494,
        0.9513533115386963
      ],
      "min": [
        0.7989416122436523,
        0.8113431930541992
      ],
      "type": "VEC2"
    },
    {
      "bufferView": 0,
      "byteOffset": 715116,
      "componentType": 5125,
      "count": 3456,
      "type": "SCALAR"
    },
    {
      "bufferView": 2,
      "byteOffset": 1183848,
      "componentType": 5126,
      "count": 1530,
      "max": [
        2.348823308944702,
        1.884972095489502,
        6.3535847663879395
      ],
      "min": [
        -2.0597667694091797,
        -1.7957409620285034,
        1.093186378479004
      ],
      "type": "VEC3"
    },
    {
      "bufferView": 2,
      "byteOffset": 1202208,
      "componentType": 5126,
      "count": 1530,
      "max": [
        0.9957548379898071,
        0.9999972581863403,
        0.9978736042976379
      ],
      "min": [
        -0.9986517429351807,
        -0.9997419118881226,
        -0.9960764050483704
      ],
      "type": "VEC3"
    },
    {
      "bufferView": 3,
      "byteOffset": 789232,
      "componentType": 5126,
      "count": 1530,
      "max": [
        0.9705116748809814,
        0.9986431002616882,
        0.9999552369117737,
        1.0
      ],
      "min": [
        -0.9208520650863647,
        -0.9960981607437134,
        -0.999989926815033,
        -1.0
      ],
      "type": "VEC4"
    },
    {
      "bufferView": 1,
      "byteOffset": 789232,
      "componentType": 5126,
      "count": 1530,
      "max": [
        0.9858941435813904,
        0.9792741537094116
      ],
      "min": [
        0.5204591751098633,
        0.02743404358625412
      ],
      "type": "VEC2"
    },
    {
      "bufferView": 1,
      "byteOffset": 801472,
      "componentType": 5126,
      "count": 1530,
      "max": [
        0.9858941435813904,
        0.9792741537094116
      ],
      "min": [
        0.5204591751098633,
        0.02743404358625412
      ],
      "type": "VEC2"
    },
    {
      "bufferView": 0,
      "byteOffset": 728940,
      "componentType": 5125,
      "count": 7932,
      "type": "SCALAR"
    }
  ],
  "asset": {
    "extras": {
      "author": "Sector347 (https://sketchfab.com/sector347)",
      "license": "CC-BY-4.0 (http://creativecommons.org/licenses/by/4.0/)",
      "source": "https://sketchfab.com/3d-models/defender-of-hawaii-68a1591386ba4dc6a0828e03262aec28",
      "title": "Defender of Hawaii"
    },
    "generator": "Sketchfab-15.10.0",
    "version": "2.0"
  },
  "bufferViews": [
    {
      "buffer": 0,
      "byteLength": 760668,
      "name": "floatBufferViews",
      "target": 34963
    },
    {
      "buffer": 0,
      "byteLength": 813712,
      "byteOffset": 760668,
      "byteStride": 8,
      "name": "floatBufferViews",
      "target": 34962
    },
    {
      "buffer": 0,
      "byteLength": 1220568,
      "byteOffset": 1574380,
      "byteStride": 12,
      "name": "floatBufferViews",
      "target": 34962
    },
    {
      "buffer": 0,
      "byteLength": 813712,
      "byteOffset": 2794948,
      "byteStride": 16,
      "name": "floatBufferViews",
      "target": 34962
    }
  ],
  "buffers": [
    {
      "byteLength": 3608660,
      "uri": "scene.bin"
    }
  ],
  "images": [
    {
      "uri": "textures/Hair1_baseColor.png"
    },
    {
      "uri": "textures/Hair1_metallicRoughness.png"
    },
    {
      "uri": "textures/Hair1_normal.png"
    },
    {
      "uri": "textures/Defender_baseColor.png"
    },
    {
      "uri": "textures/Defender_metallicRoughness.png"
    },
    {
      "uri": "textures/Defender_normal.png"
    },
    {
      "uri": "textures/Items_baseColor.png"
    },
    {
      "uri": "textures/Items_metallicRoughness.png"
    },
    {
      "uri": "textures/Items_normal.png"
    }
  ],
  "materials": [
    {
      "alphaMode": "BLEND",
      "doubleSided": true,
      "name": "Hair1",
      "normalTexture": {
        "index": 2
      },
      "pbrMetallicRoughness": {
        "baseColorTexture": {
          "index": 0
        },
        "metallicFactor": 0.0,
        "metallicRoughnessTexture": {
          "index": 1
        }
      }
    },
    {
      "doubleSided": true,
      "name": "Defender",
      "normalTexture": {
        "index": 5
      },
      "pbrMetallicRoughness": {
        "baseColorTexture": {
          "index": 3
        },
        "metallicFactor": 0.0,
        "metallicRoughnessTexture": {
          "index": 4
        }
      }
    },
    {
      "doubleSided": true,
      "name": "Items",
      "normalTexture": {
        "index": 8
      },
      "pbrMetallicRoughness": {
        "baseColorTexture": {
          "index": 6
        },
        "metallicRoughnessTexture": {
          "index": 7
        }
      }
    }
  ],
  "meshes": [
    {
      "name": "Mesh.002_Hair1_0",
      "primitives": [
        {
          "attributes": {
            "NORMAL": 1,
            "POSITION": 0,
            "TANGENT": 2,
            "TEXCOORD_0": 3,
            "TEXCOORD_1": 4
          },
          "indices": 5,
          "material": 0,
          "mode": 4
        }
      ]
    },
    {
      "name": "Body lp_Defender_0",
      "primitives": [
        {
          "attributes": {
            "NORMAL": 7,
            "POSITION": 6,
            "TANGENT": 8,
            "TEXCOORD_0": 9,
            "TEXCOORD_1": 10
          },
          "indices": 11,
          "material": 1,
          "mode": 4
        }
      ]
    },
    {
      "name": "Circle_Items_0",
      "primitives": [
        {
          "attributes": {
            "NORMAL": 13,
            "POSITION": 12,
            "TANGENT": 14,
            "TEXCOORD_0": 15,
            "TEXCOORD_1": 16
          },
          "indices": 17,
          "material": 2,
          "mode": 4
        }
      ]
    },
    {
      "name": "FishHook1_Items_0",
      "primitives": [
        {
          "attributes": {
            "NORMAL": 19,
            "POSITION": 18,
            "TANGENT": 20,
            "TEXCOORD_0": 21,
            "TEXCOORD_1": 22
          },
          "indices": 23,
          "material": 2,
          "mode": 4
        }
      ]
    },
    {
      "name": "Items_Items_0",
      "primitives": [
        {
          "attributes": {
            "NORMAL": 25,
            "POSITION": 24,
            "TANGENT": 26,
            "TEXCOORD_0": 27,
            "TEXCOORD_1": 28
          },
          "indices": 29,
          "material": 2,
          "mode": 4
        }
      ]
    },
    {
      "name": "Items.001_Items_0",
      "primitives": [
        {
          "attributes": {
            "NORMAL": 31,
            "POSITION": 30,
            "TANGENT": 32,
            "TEXCOORD_0": 33,
            "TEXCOORD_1": 34
          },
          "indices": 35,
          "material": 2,
          "mode": 4
        }
      ]
    }
  ],
  "nodes": [
    {
      "children": [
        1
      ],
      "matrix": [
        1.0,
        0.0,
        0.0,
        0.0,
        0.0,
        2.220446049250313e-16,
        -1.0,
        0.0,
        0.0,
        1.0,
        2.220446049250313e-16,
        0.0,
        0.0,
        0.0,
        0.0,
        1.0
      ],
      "name": "Sketchfab_model"
    },
    {
      "children": [
        2
      ],
      "matrix": [
        0.009999999776482582,
        0.0,
        0.0,
        0.0,
        0.0,
        0.0,
        0.009999999776482582,
        0.0,
        0.0,
        -0.009999999776482582,
        0.0,
        0.0,
        0.0,
        0.0,
        0.0,
        1.0
      ],
      "name": "722ab5721b6a4e5693bb65f15ac95dd5.fbx"
    },
    {
      "children": [
        3,
        5,
        7,
        9,
        11,
        13
      ],
      "name": "RootNode"
    },
    {
      "children": [
        4
      ],
      "matrix": [
        100.0,
        0.0,
        0.0,
        0.0,
        0.0,
        -1.629206793918314e-05,
        -99.99999999999868,
        0.0,
        0.0,
        99.99999999999868,
        -1.629206793918314e-05,
        0.0,
        0.0,
        0.0,
        0.0,
        1.0
      ],
      "name": "Mesh.002"
    },
    {
      "mesh": 0,
      "name": "Mesh.002_Hair1_0"
    },
    {
      "children": [
        6
      ],
      "matrix": [
        16.75203514099121,
        0.0,
        0.0,
        0.0,
        0.0,
        -2.7292529463661224e-06,
        -16.75203514099099,
        0.0,
        0.0,
        16.75203514099099,
        -2.7292529463661224e-06,
        0.0,
        0.0,
        1.1920928955078125e-05,
        0.0,
        1.0
      ],
      "name": "Body lp"
    },
    {
      "mesh": 1,
      "name": "Body lp_Defender_0"
    },
    {
      "children": [
        8
      ],
      "matrix": [
        5.122881889343262,
        0.0,
        0.0,
        0.0,
        0.0,
        5.122881889343193,
        8.346234262936168e-07,
        0.0,
        0.0,
        -8.346234262936168e-07,
        5.122881889343193,
        0.0,
        0.0,
        -1.1920928955078125e-05,
        -5.9604644775390625e-06,
        1.0
      ],
      "name": "Circle"
    },
    {
      "mesh": 2,
      "name": "Circle_Items_0"
    },
    {
      "children": [
        10
      ],
      "matrix": [
        3.689074515594718,
        -0.728080695470206,
        0.4829761608692046,
        0.0,
        0.8420337783935132,
        2.4035616924530077,
        -2.808292819367581,
        0.0,
        0.233123530114655,
        2.839969529714019,
        2.5005725214333903,
        0.0,
        1.862645149230957e-07,
        0.0,
        1.043081283569336e-05,
        1.0
      ],
      "name": "FishHook1"
    },
    {
      "mesh": 3,
      "name": "FishHook1_Items_0"
    },
    {
      "children": [
        12
      ],
      "matrix": [
        16.75203514099121,
        0.0,
        0.0,
        0.0,
        0.0,
        -2.7292529463661224e-06,
        -16.75203514099099,
        0.0,
        0.0,
        16.75203514099099,
        -2.7292529463661224e-06,
        0.0,
        0.0,
        1.1920928955078125e-05,
        0.0,
        1.0
      ],
      "name": "Items"
    },
    {
      "mesh": 4,
      "name": "Items_Items_0"
    },
    {
      "children": [
        14
      ],
      "matrix": [
        16.75203514099121,
        0.0,
        0.0,
        0.0,
        0.0,
        -2.7292529463661224e-06,
        -16.75203514099099,
        0.0,
        0.0,
        16.75203514099099,
        -2.7292529463661224e-06,
        0.0,
        0.0,
        1.1920928955078125e-05,
        0.0,
        1.0
      ],
      "name": "Items.001"
    },
    {
      "mesh": 5,
      "name": "Items.001_Items_0"
    }
  ],
  "samplers": [
    {
      "magFilter": 9729,
      "minFilter": 9987,
      "wrapS": 10497,
      "wrapT": 10497
    }
  ],
  "scene": 0,
  "scenes": [
    {
      "name": "Sketchfab_Scene",
      "nodes": [
        0
      ]
    }
  ],
  "textures": [
    {
      "sampler": 0,
      "source": 0
    },
    {
      "sampler": 0,
      "source": 1
    },
    {
      "sampler": 0,
      "source": 2
    },
    {
      "sampler": 0,
      "source": 3
    },
    {
      "sampler": 0,
      "source": 4
    },
    {
      "sampler": 0,
      "source": 5
    },
    {
      "sampler": 0,
      "source": 6
    },
    {
      "sampler": 0,
      "source": 7
    },
    {
      "sampler": 0,
      "source": 8
    }
  ]
}
