{
  "accessors": [
    {
      "bufferView": 2,
      "componentType": 5126,
      "count": 1643,
      "max": [
        1.0,
        1.0,
        0.9976688027381897
      ],
      "min": [
        -1.0,
        -1.0,
        -0.9976688027381897
      ],
      "type": "VEC3"
    },
    {
      "bufferView": 2,
      "byteOffset": 19716,
      "componentType": 5126,
      "count": 1643,
      "max": [
        0.9999222755432129,
        1.0,
        0.9976063966751099
      ],
      "min": [
        -0.9999222755432129,
        -1.0,
        -0.9976063966751099
      ],
      "type": "VEC3"
    },
    {
      "bufferView": 3,
      "componentType": 5126,
      "count": 1643,
      "max": [
        0.47058823704719543,
        0.6784313917160034,
        0.95686274766922,
        1.0
      ],
      "min": [
        0.11372549086809158,
        0.3019607961177826,
        0.5529412031173706,
        1.0
      ],
      "type": "VEC4"
    },
    {
      "bufferView": 1,
      "componentType": 5126,
      "count": 1643,
      "max": [
        0.9999998211860657,
        1.0
      ],
      "min": [
        0.0,
        0.49999991059303284
      ],
      "type": "VEC2"
    },
    {
      "bufferView": 0,
      "componentType": 5125,
      "count": 9108,
      "type": "SCALAR"
    },
    {
      "bufferView": 2,
      "byteOffset": 39432,
      "componentType": 5126,
      "count": 1782,
      "max": [
        73.44084930419922,
        16.177207946777344,
        33.36085510253906
      ],
      "min": [
        25.817996978759766,
        -6.097444534301758,
        -27.153884887695313
      ],
      "type": "VEC3"
    },
    {
      "bufferView": 2,
      "byteOffset": 60816,
      "componentType": 5126,
      "count": 1782,
      "max": [
        0.9977986812591553,
        0.9986063838005066,
        0.9921557307243347
      ],
      "min": [
        -0.9805880188941956,
        -0.9996176362037659,
        -0.9949873685836792
      ],
      "type": "VEC3"
    },
    {
      "bufferView": 3,
      "byteOffset": 26288,
      "componentType": 5126,
      "count": 1782,
      "max": [
        0.572549045085907,
        0.6392157077789307,
        0.7254902124404907,
        1.0
      ],
      "min": [
        0.572549045085907,
        0.6392157077789307,
        0.7254902124404907,
        1.0
      ],
      "type": "VEC4"
    },
    {
      "bufferView": 0,
      "byteOffset": 36432,
      "componentType": 5125,
      "count": 1782,
      "type": "SCALAR"
    },
    {
      "bufferView": 2,
      "byteOffset": 82200,
      "componentType": 5126,
      "count": 1782,
      "max": [
        73.44084930419922,
        16.177207946777344,
        33.36085510253906
      ],
      "min": [
        25.817996978759766,
        -6.097444534301758,
        -27.153884887695313
      ],
      "type": "VEC3"
    },
    {
      "bufferView": 2,
      "byteOffset": 103584,
      "componentType": 5126,
      "count": 1782,
      "max": [
        0.9977986812591553,
        0.9986063838005066,
        0.9921557307243347
      ],
      "min": [
        -0.9805880188941956,
        -0.9996176362037659,
        -0.9949873685836792
      ],
      "type": "VEC3"
    },
    {
      "bufferView": 3,
      "byteOffset": 54800,
      "componentType": 5126,
      "count": 1782,
      "max": [
        0.572549045085907,
        0.6392157077789307,
        0.7254902124404907,
        1.0
      ],
      "min": [
        0.572549045085907,
        0.6392157077789307,
        0.7254902124404907,
        1.0
      ],
      "type": "VEC4"
    },
    {
      "bufferView": 0,
      "byteOffset": 43560,
      "componentType": 5125,
      "count": 1782,
      "type": "SCALAR"
    },
    {
      "bufferView": 2,
      "byteOffset": 124968,
      "componentType": 5126,
      "count": 35090,
      "max": [
        262.1309814453125,
        181.79315185546875,
        277.3514709472656
      ],
      "min": [
        -265.948974609375,
        -183.3052978515625,
        -267.0907897949219
      ],
      "type": "VEC3"
    },
    {
      "bufferView": 2,
      "byteOffset": 546048,
      "componentType": 5126,
      "count": 35090,
      "max": [
        0.998113214969635,
        0.9998914003372192,
        0.9999105334281921
      ],
      "min": [
        -0.9991008043289185,
        -0.9999988675117493,
        -0.999280571937561
      ],
      "type": "VEC3"
    },
    {
      "bufferView": 3,
      "byteOffset": 83312,
      "componentType": 5126,
      "count": 35090,
      "max": [
        0.572549045085907,
        0.6392157077789307,
        0.7254902124404907,
        1.0
      ],
      "min": [
        0.572549045085907,
        0.6392157077789307,
        0.7254902124404907,
        1.0
      ],
      "type": "VEC4"
    },
    {
      "bufferView": 1,
      "byteOffset": 13144,
      "componentType": 5126,
      "count": 35090,
      "max": [
        1.0881041288375854,
        0.9353293776512146
      ],
      "min": [
        0.0,
        0.0
      ],
      "type": "VEC2"
    },
    {
      "bufferView": 0,
      "byteOffset": 50688,
      "componentType": 5125,
      "count": 35562,
      "type": "SCALAR"
    }
  ],
  "asset": {
    "extras": {
      "author": "Oscar R (https://sketchfab.com/braidoner)",
      "license": "CC-BY-4.0 (http://creativecommons.org/licenses/by/4.0/)",
      "source": "https://sketchfab.com/3d-models/star-wars-low-poly-hoth-skybox-caddf0ec811a47d5a2449a4d076a9d7b",
      "title": "Star Wars - Low Poly Hoth Skybox"
    },
    "generator": "Sketchfab-12.68.0",
    "version": "2.0"
  },
  "bufferViews": [
    {
      "buffer": 0,
      "byteLength": 192936,
      "name": "floatBufferViews",
      "target": 34963
    },
    {
      "buffer": 0,
      "byteLength": 293864,
      "byteOffset": 192936,
      "byteStride": 8,
      "name": "floatBufferViews",
      "target": 34962
    },
    {
      "buffer": 0,
      "byteLength": 967128,
      "byteOffset": 486800,
      "byteStride": 12,
      "name": "floatBufferViews",
      "target": 34962
    },
    {
      "buffer": 0,
      "byteLength": 644752,
      "byteOffset": 1453928,
      "byteStride": 16,
      "name": "floatBufferViews",
      "target": 34962
    }
  ],
  "buffers": [
    {
      "byteLength": 2098680,
      "uri": "scene.bin"
    }
  ],
  "materials": [
    {
      "doubleSided": true,
      "name": "lambert1",
      "pbrMetallicRoughness": {
        "baseColorFactor": [
          0.5,
          0.5,
          0.5,
          1.0
        ],
        "metallicFactor": 0.0,
        "roughnessFactor": 0.6
      }
    }
  ],
  "meshes": [
    {
      "name": "hoth_sky_lambert1_0",
      "primitives": [
        {
          "attributes": {
            "COLOR_0": 2,
            "NORMAL": 1,
            "POSITION": 0,
            "TEXCOORD_0": 3
          },
          "indices": 4,
          "material": 0,
          "mode": 4
        }
      ]
    },
    {
      "name": "cloud17_lambert1_0",
      "primitives": [
        {
          "attributes": {
            "COLOR_0": 7,
            "NORMAL": 6,
            "POSITION": 5
          },
          "indices": 8,
          "material": 0,
          "mode": 4
        }
      ]
    },
    {
      "name": "cloud18_lambert1_0",
      "primitives": [
        {
          "attributes": {
            "COLOR_0": 11,
            "NORMAL": 10,
            "POSITION": 9
          },
          "indices": 12,
          "material": 0,
          "mode": 4
        }
      ]
    },
    {
      "name": "clouds2_lambert1_0",
      "primitives": [
        {
          "attributes": {
            "COLOR_0": 15,
            "NORMAL": 14,
            "POSITION": 13,
            "TEXCOORD_0": 16
          },
          "indices": 17,
          "material": 0,
          "mode": 4
        }
      ]
    }
  ],
  "nodes": [
    {
      "children": [
        1
      ],
      "matrix": [
        1.0,
        0.0,
        0.0,
        0.0,
        0.0,
        2.220446049250313e-16,
        -1.0,
        0.0,
        0.0,
        1.0,
        2.220446049250313e-16,
        0.0,
        0.0,
        0.0,
        0.0,
        1.0
      ],
      "name": "Sketchfab_model"
    },
    {
      "children": [
        2
      ],
      "matrix": [
        1.0,
        0.0,
        0.0,
        0.0,
        0.0,
        0.0,
        1.0,
        0.0,
        0.0,
        -1.0,
        0.0,
        0.0,
        0.0,
        0.0,
        0.0,
        1.0
      ],
      "name": "653fb6e27b2d402bb43534f4328abd90.fbx"
    },
    {
      "children": [
        3
      ],
      "name": "RootNode"
    },
    {
      "children": [
        4,
        6,
        8,
        10
      ],
      "name": "hoth1"
    },
    {
      "children": [
        5
      ],
      "matrix": [
        267.2530822753906,
        0.0,
        0.0,
        0.0,
        0.0,
        267.2530822753906,
        0.0,
        0.0,
        0.0,
        0.0,
        267.2530822753906,
        0.0,
        0.0,
        0.0,
        0.0,
        1.0
      ],
      "name": "hoth_sky"
    },
    {
      "mesh": 0,
      "name": "hoth_sky_lambert1_0"
    },
    {
      "children": [
        7
      ],
      "matrix": [
        -3.9164521211464955,
        -0.1451905498302617,
        -1.140853166950282,
        0.0,
        0.13939674803673813,
        -4.079233159035332,
        0.040605940412652065,
        0.0,
        -1.1415755739053302,
        -9.34668554237839e-16,
        3.918932082927197,
        0.0,
        204.15921020507813,
        -227.5037841796875,
        47.945316314697266,
        1.0
      ],
      "name": "cloud17"
    },
    {
      "mesh": 1,
      "name": "cloud17_lambert1_0"
    },
    {
      "children": [
        9
      ],
      "matrix": [
        -2.391662916756415,
        -0.032333837723481085,
        3.3075862010057526,
        0.0,
        0.13450801854936378,
        -4.07919577327769,
        0.05738377604118452,
        0.0,
        3.305008252197189,
        0.14261776798454112,
        2.3911930258130507,
        0.0,
        113.7594223022461,
        252.83399963378906,
        -176.51856994628906,
        1.0
      ],
      "name": "cloud18"
    },
    {
      "mesh": 2,
      "name": "cloud18_lambert1_0"
    },
    {
      "children": [
        11
      ],
      "name": "clouds2"
    },
    {
      "mesh": 3,
      "name": "clouds2_lambert1_0"
    }
  ],
  "scene": 0,
  "scenes": [
    {
      "name": "Sketchfab_Scene",
      "nodes": [
        0
      ]
    }
  ]
}
